<svg width="56" height="56" viewBox="0 0 56 56" fill="none" xmlns="http://www.w3.org/2000/svg">
<rect width="56" height="56" rx="11.3706" fill="#626262"/>
<path d="M32.2201 27.3853C32.2201 28.7817 31.7946 29.7235 30.9401 30.2108C30.0892 30.6944 29.0528 30.589 27.8383 29.8835L21.9946 26.5126C21.5037 26.229 21.0418 25.8835 20.6091 25.4726C20.3473 25.2253 20.0965 24.9562 19.8565 24.6617C19.511 24.2399 19.1873 23.7672 18.8892 23.2508C18.0382 21.7817 17.6128 20.349 17.6128 18.9526C17.6128 18.3381 17.6965 17.8072 17.8674 17.3599C18.0383 16.9126 18.2928 16.5672 18.6346 16.3162C18.5364 15.9817 18.4638 15.6435 18.4165 15.309C18.3656 14.9744 18.3401 14.6508 18.3401 14.3453C18.3401 13.2835 18.591 12.4835 19.0892 11.949C19.2928 11.7308 19.5183 11.5635 19.7728 11.4472C20.1437 11.2762 20.5656 11.2108 21.0456 11.2544C21.1619 11.1672 21.2856 11.0908 21.4129 11.0253C21.8129 10.8181 22.2601 10.7235 22.7619 10.7344C23.4165 10.7526 24.1364 10.9853 24.9146 11.4362C25.1982 11.5999 25.4746 11.7817 25.7437 11.9853C26.2092 12.3381 26.6528 12.7526 27.071 13.2253C27.7292 13.9672 28.3 14.7999 28.7873 15.7235C29.5909 16.5781 30.2419 17.5635 30.7401 18.6762C31.2383 19.7853 31.4892 20.8726 31.4892 21.9344C31.4892 22.2435 31.4638 22.5381 31.4165 22.8144C31.3656 23.0944 31.2928 23.3453 31.1983 23.5708C31.3001 23.7635 31.3946 23.9599 31.4819 24.1526C31.6856 24.6035 31.8455 25.0508 31.9655 25.4981C32.0273 25.7344 32.0783 25.9672 32.1146 26.1962C32.1837 26.5999 32.2201 26.9962 32.2201 27.3853Z" fill="white" stroke="#A7A7A7" stroke-width="0.181818"/>
<path d="M36.602 43.6616V48.3561L13.2275 34.8617V30.1672C13.2275 29.2181 13.4421 28.469 13.8675 27.9163C14.0821 27.6399 14.333 27.4327 14.6203 27.2908C14.9003 27.1527 15.2166 27.0799 15.5657 27.0763C17.0748 27.0763 18.6094 27.3163 20.1694 27.7817C20.2784 27.8145 20.3912 27.8508 20.5003 27.8872C21.9512 28.349 23.4203 29.0108 24.9148 29.8727C26.5221 30.8036 28.1039 31.9308 29.6639 33.2654C31.2203 34.5963 32.7548 36.1345 34.2639 37.869C34.8057 38.5054 35.2675 39.2036 35.6421 39.9672C35.7584 40.1963 35.8639 40.4327 35.9621 40.6727C36.3876 41.7163 36.602 42.7127 36.602 43.6616Z" fill="white" stroke="#A7A7A7" stroke-width="0.181818"/>
<path d="M38.7617 18.2981C38.7617 18.6072 38.7363 18.9017 38.689 19.1781C38.6381 19.4581 38.5654 19.709 38.4708 19.9345L31.1981 23.5708C31.2926 23.3454 31.3654 23.0945 31.4163 22.8145C31.4636 22.5381 31.489 22.2436 31.489 21.9345C31.489 20.8726 31.2381 19.7854 30.7399 18.6763C30.2417 17.5636 29.5907 16.5781 28.7871 15.7236L36.0598 12.0872C36.8635 12.9417 37.5145 13.9272 38.0126 15.0399C38.5108 16.149 38.7617 17.2363 38.7617 18.2981Z" fill="white" stroke="#A7A7A7" stroke-width="0.181818"/>
<path d="M28.2383 7.61082L26.082 8.69082L21.4129 11.0254C21.2857 11.0908 21.162 11.1672 21.0457 11.2545C20.5657 11.2108 20.1439 11.2763 19.7729 11.4472L26.9075 7.87991L27.0238 7.82173C27.3765 7.65082 27.7838 7.58173 28.2383 7.61082Z" stroke="#A7A7A7" stroke-width="0.363636"/>
<path d="M43.8746 40.0254V44.7201L36.6019 48.3564V43.6619C36.6019 42.7127 36.3874 41.7163 35.9619 40.6727C35.8638 40.4327 35.7583 40.1963 35.6419 39.9672C35.2674 39.2036 34.8055 38.5054 34.2637 37.869C32.7546 36.1345 31.2201 34.5963 29.6638 33.2654C28.1038 31.9308 26.5219 30.8036 24.9146 29.8727C23.4201 29.0108 21.951 28.349 20.5001 27.8872C20.391 27.8508 20.2783 27.8145 20.1692 27.7817C18.6092 27.3163 17.0747 27.0799 15.5656 27.0763C15.2165 27.0763 14.9001 27.1527 14.6201 27.2908L19.8565 24.6617C20.0965 24.9563 20.3473 25.2254 20.6091 25.4727C21.0419 25.8836 21.5037 26.229 21.9946 26.5127L27.8383 29.8836C29.0529 30.589 30.0892 30.6945 30.9401 30.2108L35.0746 28.1417C35.7001 28.6036 36.3183 29.1017 36.9365 29.629C38.4929 30.9599 40.0274 32.4981 41.5365 34.2327C42.2419 35.0617 42.8092 35.9963 43.2347 37.0363C43.6601 38.0799 43.8746 39.0763 43.8746 40.0254Z" fill="white" stroke="#A7A7A7" stroke-width="0.181818"/>
<path d="M39.4927 23.749C39.4927 25.1454 39.0672 26.0872 38.2127 26.5744L37.9945 26.6835L35.0744 28.1417L30.9399 30.2108C31.7945 29.7235 32.2199 28.7817 32.2199 27.3854C32.2199 26.9963 32.1835 26.5999 32.1145 26.1963C32.0781 25.9672 32.0271 25.7344 31.9653 25.4981C31.8453 25.0508 31.6854 24.6035 31.4818 24.1526C31.3945 23.9599 31.2999 23.7635 31.1981 23.5708L38.4708 19.9344C38.809 20.5781 39.0671 21.2217 39.2381 21.8617C39.4053 22.5054 39.4927 23.1344 39.4927 23.749Z" fill="white" stroke="#A7A7A7" stroke-width="0.181818"/>
<path d="M21.4126 11.0254L21.3726 11.0435" stroke="#A7A7A7" stroke-width="0.363636"/>
<path d="M36.0598 12.0872L28.787 15.7235C28.2998 14.7999 27.7289 13.9672 27.0707 13.2253C26.6525 12.7526 26.2089 12.3381 25.7435 11.9853C25.4744 11.7817 25.198 11.5999 24.9143 11.4363C24.1362 10.9853 23.4162 10.7526 22.7617 10.7344C22.2598 10.7235 21.8126 10.8181 21.4126 11.0253L26.0816 8.69081L28.2379 7.61081L28.6853 7.38899L28.7289 7.36717C29.118 7.17808 29.5507 7.08717 30.0344 7.09808C30.6889 7.11626 31.4089 7.34898 32.1871 7.79989C32.9653 8.24716 33.6853 8.84353 34.3434 9.58899C35.0016 10.3308 35.5725 11.1635 36.0598 12.0872Z" fill="white" stroke="#A7A7A7" stroke-width="0.181818"/>
</svg>
