<svg width="458" height="216" viewBox="0 0 458 216" fill="none" xmlns="http://www.w3.org/2000/svg">
<g clip-path="url(#clip0_273_4089)">
<path d="M79.1562 86.9492L244.612 260.914" stroke="#EDEDED" stroke-width="1.45138"/>
<path d="M205.533 -33.248L370.989 140.716" stroke="#EDEDED" stroke-width="1.45138"/>
<path d="M24.3301 200.393L327.3 -87.7593" stroke="#E9E9E9" stroke-width="1.45138"/>
<path d="M141.064 322.303L444.034 34.1508" stroke="#E2E2E2" stroke-width="1.45138"/>
<path fill-rule="evenodd" clip-rule="evenodd" d="M188.446 114.586C185.596 108.486 184.005 101.681 184.005 94.5039C184.005 68.2703 205.271 47.0038 231.505 47.0038C238.682 47.0038 245.487 48.5957 251.587 51.4455C243.969 45.5275 234.398 42.0039 224.005 42.0039C199.152 42.0039 179.005 62.151 179.005 87.0039C179.005 97.3975 182.528 106.968 188.446 114.586ZM279.005 97.0038C279.005 121.857 258.858 142.004 234.005 142.004C209.152 142.004 189.005 121.857 189.005 97.0038C189.005 72.1509 209.152 52.0037 234.005 52.0037C258.858 52.0037 279.005 72.1509 279.005 97.0038ZM259.904 86.2103L252.833 79.1399L229.005 103.098L217.54 91.6333L210.47 98.7037L229.005 117.239L259.904 86.2103Z" fill="#454ADE"/>
<path d="M182.92 165.4C183.773 165.4 184.547 165.507 185.24 165.72C185.933 165.933 186.525 166.238 187.015 166.635C187.508 167.032 187.888 167.515 188.155 168.085C188.422 168.655 188.555 169.297 188.555 170.01H186.505C186.505 169.593 186.417 169.218 186.24 168.885C186.067 168.552 185.822 168.268 185.505 168.035C185.188 167.798 184.808 167.617 184.365 167.49C183.925 167.363 183.438 167.3 182.905 167.3C182.608 167.3 182.312 167.322 182.015 167.365C181.718 167.405 181.435 167.468 181.165 167.555C180.895 167.638 180.643 167.745 180.41 167.875C180.177 168.005 179.973 168.158 179.8 168.335C179.63 168.512 179.495 168.713 179.395 168.94C179.298 169.163 179.25 169.412 179.25 169.685C179.25 169.925 179.288 170.135 179.365 170.315C179.445 170.492 179.558 170.645 179.705 170.775C179.855 170.905 180.037 171.017 180.25 171.11C180.467 171.203 180.712 171.285 180.985 171.355C181.258 171.425 181.56 171.488 181.89 171.545C182.22 171.598 182.573 171.653 182.95 171.71L183.69 171.82C183.993 171.867 184.302 171.917 184.615 171.97C184.932 172.02 185.245 172.082 185.555 172.155C185.865 172.225 186.167 172.312 186.46 172.415C186.753 172.515 187.03 172.635 187.29 172.775C187.553 172.915 187.793 173.082 188.01 173.275C188.23 173.465 188.418 173.687 188.575 173.94C188.732 174.19 188.853 174.477 188.94 174.8C189.03 175.12 189.075 175.483 189.075 175.89C189.075 176.383 189.008 176.837 188.875 177.25C188.742 177.66 188.55 178.028 188.3 178.355C188.053 178.682 187.753 178.967 187.4 179.21C187.047 179.453 186.648 179.657 186.205 179.82C185.762 179.98 185.278 180.1 184.755 180.18C184.235 180.26 183.683 180.3 183.1 180.3C182.14 180.3 181.278 180.195 180.515 179.985C179.755 179.772 179.11 179.463 178.58 179.06C178.053 178.653 177.65 178.157 177.37 177.57C177.09 176.98 176.95 176.31 176.95 175.56H179C179 176.003 179.095 176.402 179.285 176.755C179.475 177.105 179.747 177.403 180.1 177.65C180.453 177.893 180.88 178.08 181.38 178.21C181.88 178.337 182.442 178.4 183.065 178.4C183.422 178.4 183.767 178.378 184.1 178.335C184.437 178.292 184.752 178.225 185.045 178.135C185.338 178.042 185.605 177.927 185.845 177.79C186.088 177.65 186.297 177.487 186.47 177.3C186.643 177.11 186.778 176.895 186.875 176.655C186.972 176.415 187.02 176.147 187.02 175.85C187.02 175.587 186.98 175.358 186.9 175.165C186.823 174.968 186.712 174.8 186.565 174.66C186.418 174.52 186.242 174.402 186.035 174.305C185.828 174.208 185.595 174.125 185.335 174.055C185.075 173.985 184.793 173.925 184.49 173.875C184.187 173.822 183.865 173.77 183.525 173.72L182.595 173.58C182.188 173.517 181.772 173.45 181.345 173.38C180.918 173.307 180.505 173.212 180.105 173.095C179.708 172.978 179.333 172.833 178.98 172.66C178.627 172.487 178.318 172.268 178.055 172.005C177.792 171.738 177.583 171.42 177.43 171.05C177.277 170.677 177.2 170.237 177.2 169.73C177.2 169.253 177.268 168.815 177.405 168.415C177.545 168.015 177.74 167.655 177.99 167.335C178.24 167.015 178.54 166.735 178.89 166.495C179.24 166.252 179.627 166.05 180.05 165.89C180.473 165.727 180.927 165.605 181.41 165.525C181.897 165.442 182.4 165.4 182.92 165.4ZM198.343 168.975H200.368V180H198.343V176.82C198.21 177.36 198.018 177.845 197.768 178.275C197.518 178.705 197.218 179.07 196.868 179.37C196.518 179.67 196.123 179.9 195.683 180.06C195.243 180.22 194.767 180.3 194.253 180.3C193.623 180.3 193.06 180.182 192.563 179.945C192.067 179.705 191.645 179.363 191.298 178.92C190.955 178.473 190.692 177.932 190.508 177.295C190.328 176.658 190.238 175.94 190.238 175.14V168.975H192.263V175.14C192.263 176.243 192.498 177.075 192.968 177.635C193.442 178.192 194.15 178.47 195.093 178.47C195.603 178.47 196.058 178.392 196.458 178.235C196.862 178.075 197.202 177.845 197.478 177.545C197.758 177.242 197.972 176.872 198.118 176.435C198.268 175.995 198.343 175.497 198.343 174.94V168.975ZM203.743 174.485C203.743 175.102 203.82 175.657 203.973 176.15C204.13 176.64 204.353 177.058 204.643 177.405C204.936 177.748 205.291 178.012 205.708 178.195C206.125 178.378 206.593 178.47 207.113 178.47C207.57 178.47 207.973 178.402 208.323 178.265C208.673 178.128 208.975 177.942 209.228 177.705C209.481 177.465 209.686 177.187 209.843 176.87C210 176.55 210.111 176.208 210.178 175.845H212.203C212.15 176.262 212.055 176.662 211.918 177.045C211.781 177.428 211.606 177.785 211.393 178.115C211.18 178.445 210.928 178.745 210.638 179.015C210.351 179.282 210.028 179.512 209.668 179.705C209.311 179.895 208.918 180.042 208.488 180.145C208.061 180.248 207.601 180.3 207.108 180.3C206.571 180.3 206.065 180.237 205.588 180.11C205.111 179.987 204.673 179.807 204.273 179.57C203.876 179.33 203.52 179.04 203.203 178.7C202.886 178.36 202.618 177.975 202.398 177.545C202.178 177.112 202.01 176.638 201.893 176.125C201.776 175.612 201.718 175.065 201.718 174.485C201.718 173.905 201.776 173.358 201.893 172.845C202.01 172.332 202.178 171.86 202.398 171.43C202.618 171 202.886 170.615 203.203 170.275C203.52 169.932 203.876 169.642 204.273 169.405C204.673 169.168 205.111 168.988 205.588 168.865C206.065 168.738 206.571 168.675 207.108 168.675C207.601 168.675 208.061 168.727 208.488 168.83C208.918 168.933 209.313 169.082 209.673 169.275C210.033 169.465 210.356 169.695 210.643 169.965C210.933 170.232 211.183 170.53 211.393 170.86C211.606 171.19 211.781 171.547 211.918 171.93C212.055 172.313 212.15 172.713 212.203 173.13H210.178C210.111 172.767 210 172.427 209.843 172.11C209.69 171.79 209.486 171.512 209.233 171.275C208.98 171.035 208.676 170.847 208.323 170.71C207.973 170.573 207.57 170.505 207.113 170.505C206.593 170.505 206.125 170.597 205.708 170.78C205.291 170.963 204.936 171.227 204.643 171.57C204.353 171.913 204.13 172.332 203.973 172.825C203.82 173.315 203.743 173.868 203.743 174.485ZM215.325 174.485C215.325 175.102 215.402 175.657 215.555 176.15C215.712 176.64 215.935 177.058 216.225 177.405C216.518 177.748 216.873 178.012 217.29 178.195C217.707 178.378 218.175 178.47 218.695 178.47C219.152 178.47 219.555 178.402 219.905 178.265C220.255 178.128 220.557 177.942 220.81 177.705C221.063 177.465 221.268 177.187 221.425 176.87C221.582 176.55 221.693 176.208 221.76 175.845H223.785C223.732 176.262 223.637 176.662 223.5 177.045C223.363 177.428 223.188 177.785 222.975 178.115C222.762 178.445 222.51 178.745 222.22 179.015C221.933 179.282 221.61 179.512 221.25 179.705C220.893 179.895 220.5 180.042 220.07 180.145C219.643 180.248 219.183 180.3 218.69 180.3C218.153 180.3 217.647 180.237 217.17 180.11C216.693 179.987 216.255 179.807 215.855 179.57C215.458 179.33 215.102 179.04 214.785 178.7C214.468 178.36 214.2 177.975 213.98 177.545C213.76 177.112 213.592 176.638 213.475 176.125C213.358 175.612 213.3 175.065 213.3 174.485C213.3 173.905 213.358 173.358 213.475 172.845C213.592 172.332 213.76 171.86 213.98 171.43C214.2 171 214.468 170.615 214.785 170.275C215.102 169.932 215.458 169.642 215.855 169.405C216.255 169.168 216.693 168.988 217.17 168.865C217.647 168.738 218.153 168.675 218.69 168.675C219.183 168.675 219.643 168.727 220.07 168.83C220.5 168.933 220.895 169.082 221.255 169.275C221.615 169.465 221.938 169.695 222.225 169.965C222.515 170.232 222.765 170.53 222.975 170.86C223.188 171.19 223.363 171.547 223.5 171.93C223.637 172.313 223.732 172.713 223.785 173.13H221.76C221.693 172.767 221.582 172.427 221.425 172.11C221.272 171.79 221.068 171.512 220.815 171.275C220.562 171.035 220.258 170.847 219.905 170.71C219.555 170.573 219.152 170.505 218.695 170.505C218.175 170.505 217.707 170.597 217.29 170.78C216.873 170.963 216.518 171.227 216.225 171.57C215.935 171.913 215.712 172.332 215.555 172.825C215.402 173.315 215.325 173.868 215.325 174.485ZM235.357 176.345C235.214 176.962 234.99 177.515 234.687 178.005C234.387 178.495 234.019 178.91 233.582 179.25C233.149 179.59 232.654 179.85 232.097 180.03C231.544 180.21 230.944 180.3 230.297 180.3C229.757 180.3 229.249 180.237 228.772 180.11C228.295 179.983 227.855 179.802 227.452 179.565C227.052 179.325 226.692 179.035 226.372 178.695C226.055 178.352 225.785 177.965 225.562 177.535C225.342 177.102 225.174 176.628 225.057 176.115C224.94 175.598 224.882 175.05 224.882 174.47C224.882 173.89 224.94 173.345 225.057 172.835C225.174 172.325 225.34 171.855 225.557 171.425C225.777 170.995 226.044 170.61 226.357 170.27C226.67 169.93 227.025 169.642 227.422 169.405C227.819 169.168 228.254 168.988 228.727 168.865C229.2 168.738 229.704 168.675 230.237 168.675C231.027 168.675 231.74 168.812 232.377 169.085C233.014 169.355 233.557 169.74 234.007 170.24C234.457 170.74 234.804 171.345 235.047 172.055C235.29 172.765 235.412 173.56 235.412 174.44C235.412 174.567 235.409 174.692 235.402 174.815C235.395 174.938 235.387 175.075 235.377 175.225H226.947C227.007 175.728 227.127 176.182 227.307 176.585C227.49 176.985 227.727 177.325 228.017 177.605C228.31 177.885 228.652 178.1 229.042 178.25C229.435 178.397 229.87 178.47 230.347 178.47C231.084 178.47 231.699 178.293 232.192 177.94C232.685 177.583 233.067 177.052 233.337 176.345H235.357ZM233.317 173.475C233.25 172.995 233.134 172.572 232.967 172.205C232.8 171.835 232.587 171.525 232.327 171.275C232.067 171.022 231.762 170.83 231.412 170.7C231.065 170.57 230.677 170.505 230.247 170.505C229.807 170.505 229.404 170.573 229.037 170.71C228.67 170.843 228.347 171.038 228.067 171.295C227.79 171.548 227.56 171.86 227.377 172.23C227.194 172.597 227.064 173.012 226.987 173.475H233.317ZM241.233 168.675C241.983 168.675 242.65 168.76 243.233 168.93C243.82 169.1 244.313 169.343 244.713 169.66C245.116 169.973 245.421 170.355 245.628 170.805C245.838 171.252 245.943 171.753 245.943 172.31H243.968C243.968 172.027 243.908 171.77 243.788 171.54C243.668 171.307 243.491 171.108 243.258 170.945C243.028 170.778 242.743 170.65 242.403 170.56C242.063 170.47 241.673 170.425 241.233 170.425C240.833 170.425 240.468 170.462 240.138 170.535C239.811 170.608 239.53 170.713 239.293 170.85C239.056 170.983 238.873 171.145 238.743 171.335C238.613 171.522 238.548 171.73 238.548 171.96C238.548 172.133 238.585 172.287 238.658 172.42C238.731 172.55 238.831 172.663 238.958 172.76C239.085 172.857 239.233 172.94 239.403 173.01C239.573 173.077 239.755 173.135 239.948 173.185C240.145 173.235 240.348 173.278 240.558 173.315C240.768 173.348 240.975 173.382 241.178 173.415L241.913 173.53C242.22 173.577 242.541 173.632 242.878 173.695C243.218 173.755 243.553 173.837 243.883 173.94C244.213 174.04 244.526 174.168 244.823 174.325C245.12 174.478 245.381 174.672 245.608 174.905C245.835 175.138 246.015 175.418 246.148 175.745C246.281 176.068 246.348 176.453 246.348 176.9C246.348 177.443 246.241 177.927 246.028 178.35C245.815 178.77 245.5 179.125 245.083 179.415C244.67 179.705 244.156 179.925 243.543 180.075C242.93 180.225 242.221 180.3 241.418 180.3C240.581 180.3 239.848 180.218 239.218 180.055C238.588 179.892 238.063 179.652 237.643 179.335C237.223 179.018 236.906 178.63 236.693 178.17C236.483 177.707 236.378 177.175 236.378 176.575H238.353C238.353 176.892 238.415 177.173 238.538 177.42C238.661 177.663 238.85 177.87 239.103 178.04C239.356 178.207 239.675 178.333 240.058 178.42C240.441 178.507 240.893 178.55 241.413 178.55C241.883 178.55 242.301 178.515 242.668 178.445C243.035 178.375 243.345 178.273 243.598 178.14C243.851 178.003 244.045 177.835 244.178 177.635C244.311 177.435 244.378 177.207 244.378 176.95C244.378 176.75 244.338 176.575 244.258 176.425C244.181 176.272 244.075 176.138 243.938 176.025C243.805 175.912 243.645 175.815 243.458 175.735C243.271 175.652 243.07 175.58 242.853 175.52C242.64 175.46 242.415 175.408 242.178 175.365C241.941 175.318 241.705 175.275 241.468 175.235L240.733 175.11C240.453 175.063 240.156 175.01 239.843 174.95C239.53 174.887 239.218 174.808 238.908 174.715C238.601 174.618 238.306 174.498 238.023 174.355C237.743 174.208 237.495 174.028 237.278 173.815C237.065 173.602 236.893 173.347 236.763 173.05C236.636 172.753 236.573 172.405 236.573 172.005C236.573 171.498 236.68 171.04 236.893 170.63C237.11 170.22 237.418 169.87 237.818 169.58C238.221 169.29 238.71 169.067 239.283 168.91C239.86 168.753 240.51 168.675 241.233 168.675ZM252.092 168.675C252.843 168.675 253.509 168.76 254.093 168.93C254.679 169.1 255.173 169.343 255.573 169.66C255.976 169.973 256.281 170.355 256.488 170.805C256.698 171.252 256.803 171.753 256.803 172.31H254.828C254.828 172.027 254.768 171.77 254.648 171.54C254.528 171.307 254.351 171.108 254.118 170.945C253.888 170.778 253.603 170.65 253.263 170.56C252.923 170.47 252.533 170.425 252.092 170.425C251.693 170.425 251.328 170.462 250.998 170.535C250.671 170.608 250.389 170.713 250.153 170.85C249.916 170.983 249.733 171.145 249.603 171.335C249.473 171.522 249.408 171.73 249.408 171.96C249.408 172.133 249.444 172.287 249.518 172.42C249.591 172.55 249.691 172.663 249.818 172.76C249.944 172.857 250.093 172.94 250.263 173.01C250.433 173.077 250.614 173.135 250.808 173.185C251.004 173.235 251.208 173.278 251.418 173.315C251.628 173.348 251.834 173.382 252.038 173.415L252.773 173.53C253.079 173.577 253.401 173.632 253.738 173.695C254.078 173.755 254.413 173.837 254.743 173.94C255.073 174.04 255.386 174.168 255.683 174.325C255.979 174.478 256.241 174.672 256.468 174.905C256.694 175.138 256.874 175.418 257.008 175.745C257.141 176.068 257.207 176.453 257.207 176.9C257.207 177.443 257.101 177.927 256.888 178.35C256.674 178.77 256.359 179.125 255.943 179.415C255.529 179.705 255.016 179.925 254.403 180.075C253.789 180.225 253.081 180.3 252.278 180.3C251.441 180.3 250.708 180.218 250.078 180.055C249.448 179.892 248.923 179.652 248.503 179.335C248.083 179.018 247.766 178.63 247.553 178.17C247.343 177.707 247.238 177.175 247.238 176.575H249.213C249.213 176.892 249.274 177.173 249.398 177.42C249.521 177.663 249.709 177.87 249.963 178.04C250.216 178.207 250.534 178.333 250.918 178.42C251.301 178.507 251.753 178.55 252.273 178.55C252.743 178.55 253.161 178.515 253.528 178.445C253.894 178.375 254.204 178.273 254.458 178.14C254.711 178.003 254.904 177.835 255.038 177.635C255.171 177.435 255.238 177.207 255.238 176.95C255.238 176.75 255.198 176.575 255.118 176.425C255.041 176.272 254.934 176.138 254.798 176.025C254.664 175.912 254.504 175.815 254.318 175.735C254.131 175.652 253.929 175.58 253.713 175.52C253.499 175.46 253.274 175.408 253.038 175.365C252.801 175.318 252.564 175.275 252.328 175.235L251.593 175.11C251.313 175.063 251.016 175.01 250.703 174.95C250.389 174.887 250.078 174.808 249.768 174.715C249.461 174.618 249.166 174.498 248.883 174.355C248.603 174.208 248.354 174.028 248.138 173.815C247.924 173.602 247.753 173.347 247.623 173.05C247.496 172.753 247.433 172.405 247.433 172.005C247.433 171.498 247.539 171.04 247.753 170.63C247.969 170.22 248.278 169.87 248.678 169.58C249.081 169.29 249.569 169.067 250.143 168.91C250.719 168.753 251.369 168.675 252.092 168.675ZM259.591 170.675H257.916V168.975H259.591V168.725C259.591 168.042 259.676 167.44 259.846 166.92C260.016 166.4 260.266 165.965 260.596 165.615C260.929 165.262 261.341 164.997 261.831 164.82C262.321 164.64 262.887 164.55 263.531 164.55C264.077 164.55 264.671 164.615 265.311 164.745V166.495C264.727 166.375 264.227 166.315 263.811 166.315C263.041 166.315 262.466 166.515 262.086 166.915C261.706 167.315 261.516 167.918 261.516 168.725V168.975H265.316V170.675H261.616V180H259.591V170.675ZM274.632 168.975H276.657V180H274.632V176.82C274.499 177.36 274.307 177.845 274.057 178.275C273.807 178.705 273.507 179.07 273.157 179.37C272.807 179.67 272.412 179.9 271.972 180.06C271.532 180.22 271.056 180.3 270.542 180.3C269.912 180.3 269.349 180.182 268.852 179.945C268.356 179.705 267.934 179.363 267.587 178.92C267.244 178.473 266.981 177.932 266.797 177.295C266.617 176.658 266.527 175.94 266.527 175.14V168.975H268.552V175.14C268.552 176.243 268.787 177.075 269.257 177.635C269.731 178.192 270.439 178.47 271.382 178.47C271.892 178.47 272.347 178.392 272.747 178.235C273.151 178.075 273.491 177.845 273.767 177.545C274.047 177.242 274.261 176.872 274.407 176.435C274.557 175.995 274.632 175.497 274.632 174.94V168.975ZM280.282 180H278.257V165.2H280.282V180Z" fill="#3F43CA"/>
</g>
<defs>
<clipPath id="clip0_273_4089">
<rect width="458" height="216" fill="white"/>
</clipPath>
</defs>
</svg>
