<svg width="40" height="42" viewBox="0 0 40 42" fill="none" xmlns="http://www.w3.org/2000/svg">
<path d="M15.0001 17.4671C16.841 17.4671 18.3334 15.9031 18.3334 13.9738C18.3334 12.0445 16.841 10.4805 15.0001 10.4805C13.1591 10.4805 11.6667 12.0445 11.6667 13.9738C11.6667 15.9031 13.1591 17.4671 15.0001 17.4671Z" stroke="#454ADE" stroke-width="2.62" stroke-linecap="round" stroke-linejoin="round"/>
<path d="M21.6668 3.49414H15.0002C6.66683 3.49414 3.3335 6.98747 3.3335 15.7208V26.2008C3.3335 34.9341 6.66683 38.4275 15.0002 38.4275H25.0002C33.3335 38.4275 36.6668 34.9341 36.6668 26.2008V17.4675" stroke="#454ADE" stroke-width="2.62" stroke-linecap="round" stroke-linejoin="round"/>
<path d="M26.25 8.73242H35.4167" stroke="#454ADE" stroke-width="2.62" stroke-linecap="round"/>
<path d="M30.8333 13.5364V3.92969" stroke="#454ADE" stroke-width="2.62" stroke-linecap="round"/>
<path d="M4.44971 33.1007L12.6664 27.3193C13.983 26.3935 15.883 26.4983 17.0664 27.5638L17.6164 28.0703C18.9164 29.2406 21.0164 29.2406 22.3164 28.0703L29.2497 21.8347C30.5497 20.6645 32.6497 20.6645 33.9497 21.8347L36.6664 24.2801" stroke="#454ADE" stroke-width="2.62" stroke-linecap="round" stroke-linejoin="round"/>
</svg>
