<svg width="56" height="56" viewBox="0 0 56 56" fill="none" xmlns="http://www.w3.org/2000/svg">
<rect width="56" height="56" rx="11.3706" fill="#626262"/>
<g clip-path="url(#clip0_22_161)">
<path d="M36.9322 38.8327V46.9281L13.4224 33.3518V25.2599L20.2309 29.1918L21.6504 30.0123V32.7084L28.7041 36.7799V34.0838L36.9322 38.8327Z" fill="white" stroke="#A7A7A7" stroke-width="0.102128"/>
<path d="M35.5126 25.8726L29.882 22.6216V17.2258L27.836 16.0446L20.476 11.7961V17.1918L20.2309 17.0488L13.4224 13.1203V22.5603L15.9279 24.0071L20.2309 26.4922L21.6504 27.3126V24.6131L24.156 26.0599L26.5083 27.4182L26.6616 27.5067L28.4589 28.545L28.7041 28.688V31.3841L28.8573 31.4726L31.2096 32.8309L36.9322 36.1365V26.6931L35.5126 25.8726ZM27.5296 21.2633L22.8284 18.5501V15.8505L25.3339 17.2973L27.5296 18.5671V21.2633ZM33.1637 29.3212L30.8113 27.9629V25.2667L33.1637 26.625V29.3212Z" fill="white" stroke="#A7A7A7" stroke-width="0.102128"/>
<path d="M28.8576 31.4727L26.3555 32.7255V30.0293L28.4593 28.9774L28.7044 28.8549V31.3842L28.8576 31.4727Z" fill="white" stroke="#A7A7A7" stroke-width="0.102128"/>
<path d="M43.7407 35.4284L36.9322 38.8326L28.7041 34.0837L31.2096 32.8309L36.9322 36.1365L41.2385 33.985L43.7407 35.4284Z" fill="white" stroke="#A7A7A7" stroke-width="0.102128"/>
<path d="M43.7406 35.4283V43.5238L36.9321 46.9281V38.8326L43.7406 35.4283Z" fill="white" stroke="#A7A7A7" stroke-width="0.102128"/>
<path d="M28.7042 28.6879V28.8547L28.4591 28.9773L26.3553 30.0292L24.1561 28.7594L24.0029 28.6709L26.5084 27.4182L26.6617 27.5067L28.4591 28.545L28.7042 28.6879Z" fill="white" stroke="#A7A7A7" stroke-width="0.102128"/>
<path d="M24.156 26.0598L21.6504 27.3126V24.613L24.156 26.0598Z" fill="white" stroke="#A7A7A7" stroke-width="0.102128"/>
<path d="M33.1639 26.625L30.8115 27.8029V25.2667L33.1639 26.625Z" fill="white" stroke="#A7A7A7" stroke-width="0.102128"/>
<path d="M33.1639 26.6251V29.3212L30.8115 27.9629V27.8029L33.1639 26.6251Z" fill="white" stroke="#A7A7A7" stroke-width="0.102128"/>
<path d="M43.7406 23.2888V32.7322L41.2385 33.985L36.9321 36.1365V26.6931L43.7406 23.2888Z" fill="white" stroke="#A7A7A7" stroke-width="0.102128"/>
<path d="M25.3341 17.2973L22.8286 18.5501V15.8505L25.3341 17.2973Z" fill="white" stroke="#A7A7A7" stroke-width="0.102128"/>
<path d="M27.5299 18.5671V21.2633L22.8286 18.5501L25.3341 17.2973L27.5299 18.5671Z" fill="white" stroke="#A7A7A7" stroke-width="0.102128"/>
<path d="M36.6908 13.8216V19.2173L30.4304 22.3458L29.8823 22.6216V17.2258L31.6832 16.3271L34.1853 15.0744L36.6908 13.8216Z" fill="white" stroke="#A7A7A7" stroke-width="0.102128"/>
<path d="M43.741 23.2888L36.9325 26.6931L35.513 25.8727L29.8823 22.6216L30.4304 22.3459L36.6908 19.2173L43.741 23.2888Z" fill="white" stroke="#A7A7A7" stroke-width="0.102128"/>
<path d="M22.2768 10.8973L20.476 11.796V17.1918L20.2309 17.0488L13.4224 13.1203L20.2309 9.71603L22.2768 10.8973Z" fill="white" stroke="#A7A7A7" stroke-width="0.102128"/>
<path d="M36.6906 13.8216L34.185 15.0744L31.6829 16.3271L29.8821 17.2259L27.8361 16.0446L20.4761 11.7961L22.2769 10.8973L27.2846 8.39182L36.6906 13.8216Z" fill="white" stroke="#A7A7A7" stroke-width="0.102128"/>
<path d="M26.5083 27.4182L24.0028 28.671V28.8378L21.6504 30.0122L20.2309 29.1918L13.4224 25.2599L15.9279 24.0071L20.2309 26.4922L21.6504 27.3127L24.156 26.0599L26.5083 27.4182Z" fill="white" stroke="#A7A7A7" stroke-width="0.102128"/>
<path d="M26.3553 30.0293V32.7254L24.1561 31.4556L24.0029 31.3671V28.671L24.1561 28.7595L26.3553 30.0293Z" fill="white" stroke="#A7A7A7" stroke-width="0.102128"/>
<path d="M24.156 31.4557L23.4512 31.8063L21.6504 32.7085V30.0123L24.0028 28.8378V31.3672L24.156 31.4557Z" fill="white" stroke="#A7A7A7" stroke-width="0.102128"/>
<path d="M31.2096 32.8309L28.7041 34.0837V36.7799L21.6504 32.7084L23.4512 31.8063L24.156 31.4556L26.3551 32.7254L28.8572 31.4726L31.2096 32.8309Z" fill="white" stroke="#A7A7A7" stroke-width="0.102128"/>
</g>
<defs>
<clipPath id="clip0_22_161">
<rect width="32" height="40.1702" fill="white" transform="translate(12.5 7.68762)"/>
</clipPath>
</defs>
</svg>
