<svg width="54" height="54" viewBox="0 0 54 54" fill="none" xmlns="http://www.w3.org/2000/svg">
<rect width="54" height="54" rx="4" fill="#F9F9FE"/>
<path d="M37.1387 13.1406C37.7892 12.8761 38.5041 12.8118 39.1914 12.9561C39.8789 13.1003 40.5077 13.4472 40.9971 13.9512C41.4879 14.4534 41.8178 15.0905 41.9443 15.7812C42.0709 16.4721 41.9881 17.1854 41.707 17.8291C41.426 18.4726 40.9597 19.0178 40.3672 19.3945C39.7746 19.7713 39.0828 19.9629 38.3809 19.9443C38.4425 20.2259 38.4688 20.5263 38.4688 20.8262V28.2852H36.7051V26.6016L38.0684 25.2393L36.7051 23.874V20.8262C36.7042 20.1243 36.4251 19.4513 35.9287 18.9551C35.4323 18.459 34.7594 18.1793 34.0576 18.1787H19.9404C19.2385 18.1792 18.5658 18.4589 18.0693 18.9551C17.5728 19.4513 17.2929 20.1242 17.292 20.8262V36.709C17.2929 37.4109 17.5728 38.0839 18.0693 38.5801C18.5658 39.0762 19.2386 39.355 19.9404 39.3555H34.0576C34.7594 39.3549 35.4323 39.0762 35.9287 38.5801C36.4252 38.0839 36.7042 37.4109 36.7051 36.709V36.0293L38.0684 34.665L36.7051 33.3018V31.6191H38.4688V36.709C38.467 37.8783 38.0018 38.9995 37.1748 39.8262C36.3479 40.6528 35.2268 41.1177 34.0576 41.1191H19.9404C18.7707 41.1191 17.6486 40.6541 16.8213 39.8271C15.9942 39.0002 15.5297 37.8786 15.5293 36.709V20.8262C15.5293 20.5262 15.5555 20.2257 15.6172 19.9424H15.5293C14.8312 19.9427 14.148 19.7362 13.5674 19.3486C12.9866 18.9609 12.534 18.4088 12.2666 17.7637C11.9993 17.1188 11.9285 16.4093 12.0645 15.7246C12.2006 15.0397 12.5375 14.4098 13.0312 13.916C13.525 13.4224 14.1541 13.0863 14.8389 12.9502C15.5238 12.814 16.2338 12.884 16.8789 13.1514C17.5239 13.4187 18.0752 13.8715 18.4629 14.4521C18.8506 15.0329 19.0579 15.7158 19.0576 16.4141V16.502C19.3408 16.4404 19.6406 16.4141 19.9404 16.4141H34.0576C34.3574 16.4141 34.6573 16.4403 34.9404 16.502V16.4141C34.9392 15.7116 35.1475 15.0246 35.5391 14.4414C35.9307 13.8582 36.488 13.4053 37.1387 13.1406ZM28.3184 21.709C28.3643 21.7156 28.4085 21.7324 28.4473 21.7578C28.4859 21.7832 28.5187 21.8171 28.543 21.8564C28.5673 21.8959 28.5826 21.9403 28.5879 21.9863L28.6133 22.1709C28.6185 22.2113 28.6371 22.2487 28.666 22.2773C28.6949 22.3059 28.7321 22.3242 28.7725 22.3291L29.0293 22.373C29.0701 22.3749 29.1093 22.3907 29.1396 22.418C29.1699 22.4452 29.1901 22.4822 29.1963 22.5225L29.25 22.8066C29.2584 22.8483 29.2792 22.8864 29.3105 22.915C29.342 22.9438 29.3824 22.9613 29.4248 22.9658L29.6377 23C29.6733 23.002 29.7078 23.0127 29.7383 23.0312C29.7688 23.0499 29.7944 23.0756 29.8125 23.1064C29.846 23.1645 29.8628 23.2309 29.8613 23.2979C29.8598 23.3647 29.8406 23.4299 29.8047 23.4863C29.7697 23.5563 29.7162 23.6093 29.6279 23.6094L29.4512 23.6445C29.2395 23.6795 29.1783 23.9178 29.2666 24.0928C29.2819 24.125 29.3038 24.1538 29.3311 24.1768C29.3583 24.1997 29.3905 24.2169 29.4248 24.2266L29.6709 24.2881C29.7309 24.2998 29.7863 24.3295 29.8281 24.374C29.87 24.4186 29.8963 24.4755 29.9043 24.5361C29.9135 24.5968 29.903 24.6589 29.874 24.7129C29.8449 24.7669 29.7988 24.8102 29.7432 24.8359C29.5709 24.9226 29.423 24.9077 29.3008 24.791C29.278 24.77 29.2601 24.7443 29.248 24.7158C29.236 24.6872 29.2305 24.656 29.2314 24.625C29.2314 24.2983 28.9491 24.1294 28.6758 24.3428C28.6209 24.3861 28.6045 24.4382 28.6045 24.5098V25.8066C28.596 26.0447 28.4723 26.168 28.2158 26.168C28.066 26.1681 27.9787 26.2475 27.9531 26.4062V26.4678C27.9494 26.5094 27.9544 26.5513 27.9678 26.5908C27.9811 26.6302 28.0022 26.6666 28.0303 26.6973C28.0585 26.728 28.0936 26.7528 28.1318 26.7695C28.17 26.7862 28.2113 26.7951 28.2529 26.7949H30.2197C30.2551 26.7941 30.2903 26.7996 30.3232 26.8125C30.3563 26.8254 30.3867 26.8454 30.4121 26.8701C30.4373 26.8947 30.4578 26.9237 30.4717 26.9561C30.4856 26.9887 30.493 27.0241 30.4932 27.0596V27.7393C30.4932 27.8529 30.5267 27.9373 30.5977 27.9941L28.6406 29.9521L29.2949 30.6064H28.8711C28.801 30.6069 28.7341 30.635 28.6846 30.6846C28.635 30.7341 28.6069 30.801 28.6064 30.8711C28.6064 31.1244 28.4829 31.2423 28.2363 31.2246C28.2066 31.2194 28.1756 31.2225 28.1475 31.2334C28.1194 31.2443 28.0947 31.2624 28.0762 31.2861C28.0326 31.3331 27.9988 31.3887 27.9775 31.4492C27.9564 31.5096 27.9485 31.5738 27.9531 31.6377C27.9537 31.6698 27.9452 31.7014 27.9297 31.7295C27.9142 31.7576 27.8917 31.7812 27.8643 31.7979C27.7943 31.8411 27.7148 31.8616 27.626 31.8594C27.5942 31.8572 27.5623 31.8615 27.5322 31.8721C27.5022 31.8827 27.4745 31.8993 27.4512 31.9209C27.3446 32.0175 27.3009 32.141 27.3008 32.3008C27.3008 32.4324 27.2396 32.4863 27.1064 32.4863H26.9297C26.8665 32.4863 26.8054 32.4607 26.7607 32.416C26.7163 32.3714 26.6915 32.311 26.6914 32.248V31.5059C26.6929 31.4683 26.701 31.4314 26.7148 31.3965C26.7372 31.3443 26.7745 31.3001 26.8223 31.2695C26.87 31.239 26.9258 31.2231 26.9824 31.2246C27.1768 31.2324 27.2917 31.1379 27.3262 30.9414C27.3344 30.8964 27.3327 30.8497 27.3203 30.8057C27.3079 30.7616 27.2855 30.7206 27.2549 30.6865C27.2244 30.6525 27.1859 30.6265 27.1436 30.6094C27.1012 30.5922 27.0554 30.5846 27.0098 30.5879C26.7981 30.5962 26.7012 30.491 26.7012 30.2793C26.7011 30.2362 26.6932 30.1942 26.6777 30.1533C26.6532 30.0927 26.6116 30.04 26.5576 30.0029C26.5038 29.966 26.4403 29.9455 26.375 29.9443C26.1367 29.9443 26.0312 29.8208 26.0479 29.5908C26.0515 29.5657 26.0498 29.5398 26.042 29.5156C26.0342 29.4914 26.0206 29.4695 26.0029 29.4512C25.7379 29.1062 25.1826 29.4681 25.501 29.8564C25.5256 29.8856 25.5569 29.9085 25.5918 29.9238C25.6267 29.9391 25.665 29.946 25.7031 29.9443C25.7869 29.9405 25.8701 29.9618 25.9414 30.0059C25.9733 30.0269 25.9986 30.0566 26.0156 30.0908C26.0326 30.125 26.0406 30.1631 26.0381 30.2012V31.6211C26.0394 31.6541 26.0338 31.6872 26.0215 31.7178C25.9999 31.7656 25.9626 31.8049 25.916 31.8291C25.8695 31.8533 25.8161 31.8614 25.7646 31.8516C25.5898 31.8249 25.4133 31.9561 25.4131 32.1592C25.4131 32.3875 25.2979 32.5127 25.0596 32.5127C24.8746 32.5127 24.7862 32.6095 24.7861 32.7861V33.4824C24.7861 33.5576 24.816 33.6305 24.8691 33.6836C24.9222 33.7366 24.9943 33.7666 25.0693 33.7666H25.8359C25.9315 33.7666 25.9874 33.7217 26.0029 33.6328L26.0811 33.2979C26.0867 33.2656 26.1029 33.2361 26.127 33.2139C26.151 33.1916 26.1822 33.178 26.2148 33.1748C26.488 33.1198 26.7688 33.11 27.0449 33.1475C27.283 33.1742 27.3795 33.3063 27.3096 33.5527C27.2646 33.6943 27.1596 33.7743 27.0098 33.7744C26.7898 33.7722 26.6804 33.8807 26.6826 34.0996L26.7012 34.8066C26.7013 34.9564 26.7796 35.0449 26.9395 35.0449H28.916C28.9585 35.0449 29.001 35.0361 29.04 35.0195C29.079 35.003 29.1141 34.9786 29.1436 34.9482C29.1731 34.9178 29.1966 34.8814 29.2119 34.8418C29.2271 34.8023 29.2338 34.7601 29.2324 34.7178V34.0127C29.2321 33.9625 29.2148 33.9136 29.1826 33.875C29.1505 33.8366 29.1059 33.8101 29.0566 33.8008L28.748 33.7295V33.7383C28.6503 33.7116 28.5999 33.6525 28.5977 33.5625V32.75C28.6 32.7145 28.5926 32.6785 28.5752 32.6475C28.5578 32.6165 28.5315 32.5907 28.5 32.5742C28.3997 32.5195 28.2886 32.4867 28.1748 32.4766C28.1146 32.4745 28.0566 32.4495 28.0137 32.4072C27.9709 32.365 27.9453 32.3081 27.9424 32.248C27.9257 31.798 28.4562 31.8249 28.8096 31.8516L28.9775 31.8594C29.0127 31.8574 29.0474 31.8484 29.0791 31.833C29.1109 31.8176 29.1397 31.796 29.1631 31.7695C29.2058 31.7183 29.2277 31.6526 29.2246 31.5859C29.2136 31.3495 29.3307 31.2313 29.5762 31.2324C29.6939 31.2324 29.7709 31.1969 29.8145 31.126L30.9873 32.2988L29.9111 32.291C29.8451 32.2906 29.7815 32.317 29.7344 32.3633C29.6887 32.41 29.6631 32.4727 29.6631 32.5381V33.8008C29.6639 33.8645 29.6891 33.9258 29.7334 33.9717C29.7777 34.0175 29.8377 34.0449 29.9014 34.0479L31.1729 34.0566C31.238 34.0543 31.3005 34.0293 31.3496 33.9863H31.3398C31.3861 33.9392 31.4115 33.8756 31.4111 33.8096V32.7227L33.043 34.3545V34.7266C33.043 34.8027 33.0139 34.876 32.9619 34.9316C32.9096 34.9874 32.8371 35.0217 32.7607 35.0264C32.6673 35.0368 32.5771 35.0665 32.4961 35.1143C32.4328 35.1576 32.3997 35.2135 32.3975 35.2812L32.3809 35.9814C32.3819 36.0565 32.4089 36.1289 32.457 36.1865C32.5053 36.2442 32.5726 36.2837 32.6465 36.2979C32.8662 36.341 33.051 36.1913 33.043 35.9717C33.0441 35.9207 33.0529 35.8696 33.0693 35.8213C33.0778 35.7889 33.0958 35.7593 33.1211 35.7373C33.1463 35.7154 33.1778 35.7022 33.2109 35.6982L33.501 35.6357C33.5367 35.6257 33.5695 35.6072 33.5957 35.5811C33.622 35.5548 33.6413 35.5221 33.6514 35.4863C33.678 35.433 33.6777 35.3796 33.6777 35.3096C33.6782 35.2395 33.7064 35.1726 33.7559 35.123C33.7652 35.1137 33.7757 35.1054 33.7861 35.0977L34.8955 36.207C34.8765 36.2281 34.8513 36.2444 34.8164 36.2529L34.4893 36.3408C34.4276 36.3592 34.3743 36.3866 34.3477 36.4482C34.3149 36.5027 34.2979 36.5653 34.2979 36.6289C34.2979 36.6925 34.3148 36.7551 34.3477 36.8096C34.3626 36.8326 34.3824 36.852 34.4053 36.8672C34.4282 36.8824 34.4543 36.8927 34.4814 36.8975L34.7559 36.9678C34.7907 36.9771 34.8234 36.9948 34.8496 37.0195C34.8757 37.0442 34.895 37.0753 34.9062 37.1094C34.9929 37.3193 34.9062 37.5693 34.6396 37.5693H33.2998C33.2115 37.5693 33.1495 37.5247 33.1045 37.4531C33.0512 37.3482 33.0167 37.2414 33.0166 37.1182C33.0158 37.0939 33.0092 37.0699 32.999 37.0479C32.9889 37.0259 32.9749 37.0056 32.957 36.9893C32.939 36.9728 32.9175 36.9594 32.8945 36.9512C32.8717 36.9431 32.8474 36.9401 32.8232 36.9414H30.1748C29.9732 36.9414 29.8575 37.1095 29.8574 37.3027C29.8585 37.4527 29.7855 37.5417 29.6377 37.5684L29.5576 37.5762C29.3833 37.6127 29.2811 37.542 29.25 37.3643C29.2234 37.1093 29.2134 36.8262 29.25 36.5264C29.2564 36.465 29.2841 36.4075 29.3291 36.3652C29.374 36.3232 29.4327 36.2985 29.4941 36.2959H31.5781C31.6101 36.2935 31.6405 36.282 31.666 36.2627C31.6927 36.2444 31.7197 36.2095 31.7197 36.1729C31.7814 35.9095 31.7892 35.5909 31.7559 35.2393C31.7445 35.1786 31.7112 35.1244 31.6621 35.0869C31.6128 35.0493 31.551 35.031 31.4893 35.0361C31.2428 35.0446 31.1194 35.1865 31.1377 35.4414C31.1382 35.4734 31.1307 35.5052 31.1152 35.5332C31.0997 35.5612 31.0772 35.585 31.0498 35.6016C30.9846 35.6434 30.9094 35.6675 30.832 35.6719C30.7547 35.6763 30.677 35.6602 30.6074 35.626C30.546 35.591 30.501 35.5376 30.501 35.4678L30.4844 35.2744C30.4723 35.2043 30.4344 35.141 30.3779 35.0977C30.3265 35.0634 30.2673 35.042 30.2061 35.0342C30.1449 35.0264 30.0827 35.0325 30.0244 35.0527C29.9932 35.0607 29.9652 35.0779 29.9434 35.1016C29.9215 35.1252 29.9068 35.1548 29.9014 35.1865L29.8496 35.4248C29.8371 35.4936 29.8006 35.5556 29.7471 35.6006C29.6936 35.6455 29.6264 35.6704 29.5566 35.6709H28.7891C28.7486 35.6737 28.71 35.6899 28.6797 35.7168C28.6492 35.744 28.6284 35.7811 28.6211 35.8213L28.5879 36.1133L28.5781 36.1113C28.5759 36.1438 28.5635 36.1749 28.543 36.2002C28.5224 36.2256 28.4943 36.2441 28.4629 36.2529L28.1113 36.3496C28.0634 36.3636 28.022 36.3948 27.9961 36.4375C27.9556 36.4968 27.9355 36.5679 27.9385 36.6396C27.9415 36.7113 27.9675 36.7802 28.0127 36.8359C28.0479 36.8868 28.1023 36.9215 28.1631 36.9326L28.4014 36.9766C28.4386 36.9827 28.4737 36.9985 28.502 37.0234C28.5303 37.0485 28.551 37.0818 28.5615 37.1182C28.623 37.3129 28.5693 37.4625 28.4111 37.5508C28.3668 37.5785 28.3226 37.5935 28.2783 37.5947C28.2053 37.6007 28.1319 37.58 28.0732 37.5361C28.0147 37.4923 27.9748 37.4281 27.96 37.3564V37.3027C27.935 37.1794 27.9163 37.0641 27.793 36.9941C27.7394 36.9628 27.6783 36.9463 27.6162 36.9463C27.5542 36.9463 27.493 36.9628 27.4395 36.9941C27.4121 37.0099 27.3883 37.0317 27.3701 37.0576C27.352 37.0835 27.3405 37.1134 27.335 37.1445L27.2627 37.4346C27.2635 37.4612 27.2553 37.4876 27.2393 37.5088C27.2233 37.5298 27.2004 37.5443 27.1748 37.5508C27.1089 37.5838 27.0343 37.5978 26.9609 37.5898C26.8877 37.5818 26.8179 37.5523 26.7607 37.5059C26.7382 37.4901 26.7195 37.4689 26.707 37.4443C26.6946 37.4197 26.6887 37.3919 26.6895 37.3643V36.5098C26.6885 36.4801 26.6962 36.45 26.7119 36.4248C26.7276 36.3997 26.7513 36.3803 26.7783 36.3682C26.8532 36.3331 26.9341 36.3122 27.0166 36.3066C27.08 36.3028 27.141 36.2805 27.1924 36.2432C27.2294 36.212 27.2598 36.1728 27.2803 36.1289C27.3007 36.085 27.3115 36.0367 27.3115 35.9883C27.3115 35.9398 27.3007 35.8916 27.2803 35.8477C27.2598 35.8036 27.2295 35.7637 27.1924 35.7324C27.1414 35.6894 27.0853 35.6687 27.0244 35.6709C26.7695 35.6875 26.6545 35.5745 26.6729 35.3096C26.676 35.2613 26.6641 35.2131 26.6387 35.1719C26.6133 35.1307 26.5758 35.098 26.5312 35.0791C26.2579 35.0613 25.9843 35.0505 25.7109 35.0449C25.5077 35.0451 25.3578 35.2216 25.4111 35.4248C25.4276 35.4863 25.4011 35.5376 25.3496 35.5742C25.2497 35.6418 25.1331 35.6809 25.0127 35.6875C24.8545 35.7058 24.7833 35.7862 24.7832 35.9443V36.668C24.7832 36.7391 24.8107 36.8074 24.8604 36.8584C24.9102 36.9095 24.9785 36.9397 25.0498 36.9414L25.7627 36.9678C25.9227 36.9689 26.0117 37.046 26.0283 37.1982L26.0381 37.2861C26.039 37.3248 26.032 37.3636 26.0176 37.3994C26.0032 37.435 25.9813 37.4671 25.9541 37.4941C25.9266 37.5213 25.8934 37.5426 25.8574 37.5566C25.8214 37.5707 25.7827 37.5775 25.7441 37.5762H24.3779C24.3178 37.5749 24.2603 37.5504 24.2178 37.5078C24.1753 37.4653 24.1507 37.4078 24.1494 37.3477V34.6475C24.1485 34.6124 24.157 34.5777 24.1738 34.5469C24.1908 34.5159 24.2159 34.4899 24.2461 34.4717C24.3216 34.4302 24.407 34.4081 24.4932 34.4092C24.54 34.4108 24.5864 34.3995 24.627 34.376C24.6676 34.3524 24.7007 34.3179 24.7227 34.2764C24.801 34.1264 24.7846 33.9942 24.6963 33.8809C24.6708 33.8458 24.637 33.8171 24.5986 33.7969C24.5603 33.7768 24.5179 33.7658 24.4746 33.7646C24.4057 33.767 24.3366 33.7549 24.2725 33.7295C24.2376 33.7174 24.2075 33.6947 24.1855 33.665C24.1636 33.6353 24.1507 33.5994 24.1494 33.5625V32.7695C24.1494 32.583 24.2893 32.4947 24.4658 32.5029C24.5377 32.5078 24.6093 32.4852 24.665 32.4395C24.7208 32.3936 24.7574 32.3275 24.7666 32.2559L24.791 32.0264C24.7945 31.996 24.8081 31.9675 24.8291 31.9453C24.8501 31.9231 24.878 31.9085 24.9082 31.9033L25.2246 31.833C25.2579 31.8269 25.2892 31.8125 25.3154 31.791C25.3416 31.7695 25.3625 31.7415 25.375 31.71C25.4029 31.6476 25.4113 31.5782 25.4004 31.5107C25.3894 31.4432 25.3588 31.3795 25.3125 31.3291C25.2703 31.2694 25.2056 31.2401 25.1191 31.2412C25.0244 31.2375 24.9325 31.2072 24.8545 31.1533C24.8012 31.1183 24.7744 31.0644 24.7744 31.0127V29.5742C24.7721 29.5196 24.7507 29.4672 24.7139 29.4268C24.6771 29.3864 24.6273 29.36 24.5732 29.3525C24.3432 29.3275 24.0958 29.3098 23.8125 29.3281C23.7581 29.3299 23.7046 29.3442 23.6572 29.3711C23.6097 29.398 23.5696 29.4365 23.54 29.4824C23.5106 29.5282 23.4931 29.5805 23.4883 29.6348C23.4835 29.6892 23.4916 29.7446 23.5127 29.7949C23.5293 29.8342 23.5561 29.8683 23.5898 29.8945C23.6237 29.9208 23.6637 29.938 23.7061 29.9443L23.9727 29.998C24.0204 30.0036 24.0652 30.026 24.0977 30.0615C24.13 30.097 24.1481 30.1434 24.1494 30.1914V31.6641C24.151 31.6889 24.1469 31.7142 24.1377 31.7373C24.1285 31.7603 24.1139 31.781 24.0957 31.7979C24.078 31.8142 24.0571 31.8265 24.0342 31.834C24.0112 31.8415 23.9869 31.8437 23.9629 31.8408C23.6464 31.8308 23.4884 31.9844 23.4883 32.3008C23.4896 32.3309 23.4821 32.3612 23.4678 32.3877C23.453 32.4243 23.4281 32.4563 23.3955 32.4785C23.3629 32.5008 23.3237 32.5123 23.2842 32.5127H20.6113C20.5362 32.5127 20.4643 32.4828 20.4111 32.4297C20.358 32.3766 20.3281 32.3046 20.3281 32.2295V31.5059C20.3303 31.4397 20.3561 31.3765 20.4014 31.3281C20.4467 31.2797 20.5083 31.2497 20.5742 31.2432C20.832 31.2043 20.9626 31.3151 20.9648 31.5762C20.9732 31.7712 21.0696 31.876 21.2812 31.8594H21.3711C21.5127 31.851 21.5907 31.7797 21.5908 31.6299V30.2441C21.5913 30.1812 21.5695 30.1197 21.5293 30.0713C21.489 30.023 21.433 29.9905 21.3711 29.9795C21.1171 29.942 20.8592 29.9397 20.6045 29.9717C20.4446 29.9884 20.3214 30.1211 20.3379 30.2793C20.3433 30.3168 20.3406 30.3552 20.3301 30.3916C20.3195 30.4281 20.3011 30.4624 20.2764 30.4912C20.1981 30.5895 20.1013 30.6231 19.9863 30.6064C19.9508 30.6009 19.9142 30.6034 19.8799 30.6143C19.8291 30.6274 19.7837 30.6575 19.752 30.6992C19.7203 30.7409 19.7032 30.7923 19.7041 30.8447V32.1865C19.704 32.3641 19.6152 32.4696 19.4375 32.5029H19.3682C19.1571 32.4852 19.0508 32.3703 19.0508 32.1592V30.2793C19.0511 30.1969 19.0824 30.1177 19.1377 30.0566C19.1662 30.0266 19.2011 30.0024 19.2393 29.9863C19.2773 29.9704 19.3181 29.9623 19.3594 29.9629L20.0566 29.9541C20.2397 29.9517 20.3302 29.8574 20.3291 29.6709V29.043C20.3291 28.798 20.2146 28.6934 19.9697 28.6934C19.7914 28.6934 19.6948 28.5942 19.7031 28.4092C19.7212 28.1977 19.5524 28.0566 19.3408 28.0566C19.1379 28.0665 19.0509 27.9762 19.0508 27.7832L19.0576 27.0596C19.0576 26.883 19.1466 26.795 19.3242 26.7949H21.9326C21.9855 26.7929 22.0382 26.8044 22.085 26.8291C22.1318 26.854 22.1713 26.8914 22.1992 26.9365C22.2425 27.0148 22.2698 27.1034 22.2432 27.1934C22.2333 27.2708 22.2624 27.3261 22.3311 27.3594C22.3926 27.3981 22.4634 27.4199 22.5361 27.4229C22.609 27.4258 22.6815 27.4097 22.7461 27.376C22.7842 27.3556 22.8161 27.3254 22.8379 27.2881C22.8597 27.2507 22.8702 27.2073 22.8691 27.1641C22.861 26.9709 22.985 26.7949 23.1865 26.7949H25.7812C25.8097 26.7952 25.8375 26.8015 25.8633 26.8135C25.8892 26.8256 25.9131 26.8426 25.9316 26.8643C25.9857 26.915 26.0233 26.9813 26.0391 27.0537C26.0548 27.1263 26.0478 27.2027 26.0195 27.2715C26.0071 27.3029 25.987 27.331 25.9609 27.3525C25.9347 27.3741 25.9026 27.3884 25.8691 27.3945L25.5879 27.4561C25.5384 27.4619 25.4926 27.4859 25.46 27.5234C25.4274 27.561 25.4101 27.6095 25.4111 27.6592V28.4258C25.4096 28.4772 25.4239 28.5284 25.4521 28.5713C25.4804 28.6142 25.5215 28.6472 25.5693 28.666C25.806 28.771 26.0566 28.6295 26.0566 28.3828C26.0591 28.3237 26.0646 28.2646 26.0732 28.2061C26.0982 28.1263 26.1429 28.0811 26.2227 28.0811L27.043 28.0645C27.2194 28.0645 27.3075 28.1528 27.3076 28.3291V28.4443C27.3154 28.6143 27.2297 28.7001 27.0508 28.7012C26.9795 28.6982 26.9084 28.707 26.8398 28.7266C26.7999 28.7416 26.7651 28.768 26.7402 28.8027C26.7154 28.8373 26.7008 28.8783 26.6992 28.9209C26.6782 29.1849 26.6782 29.4508 26.6992 29.7148C26.701 29.7812 26.7288 29.8443 26.7764 29.8906C26.8239 29.9369 26.8878 29.9628 26.9541 29.9629H27.6963C27.8278 29.9629 27.8893 30.0245 27.916 30.1377C27.9378 30.2613 27.9793 30.3809 28.0391 30.4912C28.0584 30.5277 28.0882 30.5577 28.124 30.5781C28.1601 30.5985 28.2018 30.6087 28.2432 30.6064C28.2893 30.6103 28.3361 30.6039 28.3799 30.5889C28.4236 30.5738 28.4641 30.55 28.498 30.5186C28.532 30.4871 28.5588 30.4487 28.5771 30.4062C28.5955 30.3637 28.6049 30.3178 28.6045 30.2715V29.5928C28.6088 29.5191 28.6418 29.4502 28.6963 29.4004C28.7508 29.3506 28.8227 29.3239 28.8965 29.3262C28.9659 29.3287 29.0351 29.3167 29.0996 29.291C29.1231 29.2829 29.1443 29.2693 29.1611 29.251C29.1779 29.2327 29.1901 29.2106 29.1963 29.1865L29.2832 28.833C29.3021 28.762 29.3461 28.7266 29.416 28.7266C29.5372 28.714 29.6563 28.6845 29.7695 28.6396C29.8311 28.613 29.8574 28.5596 29.8574 28.498V27.7031C29.8574 27.5265 29.7694 27.4297 29.5928 27.4297C29.3462 27.413 29.2227 27.5365 29.2227 27.7998C29.2226 27.9762 29.1345 28.0644 28.958 28.0645H28.1631C28.0664 28.0645 27.9942 28.0129 27.9775 27.9062C27.9409 27.643 27.9354 27.3779 27.9609 27.1113C27.9776 26.9097 27.8811 26.7949 27.6777 26.7949H27.6162C27.4312 26.7866 27.3242 26.8829 27.3242 27.0762C27.3242 27.281 27.2114 27.4032 27 27.4316C26.9589 27.4405 26.9171 27.4405 26.876 27.4316C26.8214 27.4126 26.7743 27.3761 26.7422 27.3281C26.71 27.28 26.695 27.2218 26.6982 27.1641V25.7363C26.6974 25.7093 26.703 25.6825 26.7148 25.6582C26.7311 25.6227 26.7569 25.592 26.79 25.5713C26.8232 25.5506 26.8623 25.5401 26.9014 25.541C26.9658 25.5523 27.032 25.5469 27.0938 25.5254C27.1556 25.5038 27.2114 25.467 27.2549 25.418C27.3075 25.3598 27.3359 25.2836 27.3359 25.2051C27.3359 25.1268 27.3073 25.0513 27.2549 24.9932C27.2243 24.9607 27.1873 24.934 27.1465 24.916C27.1057 24.898 27.0612 24.8884 27.0166 24.8877C26.7955 24.8877 26.6925 24.7824 26.708 24.5713C26.7115 24.53 26.7048 24.4887 26.6895 24.4502C26.6741 24.4117 26.6501 24.3772 26.6191 24.3496C26.5415 24.2809 26.4596 24.2517 26.373 24.2627C26.1531 24.2794 26.0438 24.3967 26.0459 24.6143V25.8594C26.0437 26.0159 25.9673 26.1158 25.8164 26.1592L25.7275 26.168C25.5167 26.149 25.4112 26.0373 25.4111 25.833V24.5615C25.4112 24.4834 25.3806 24.4076 25.3262 24.3516C25.2717 24.2957 25.1971 24.2629 25.1191 24.2607L24.3613 24.2441C24.3306 24.2447 24.2999 24.2373 24.2734 24.2217C24.247 24.2061 24.2253 24.1833 24.2109 24.1562C24.149 24.0395 24.1363 23.9029 24.1748 23.7764C24.1836 23.7393 24.2037 23.7058 24.2324 23.6807C24.2611 23.6556 24.2971 23.6396 24.335 23.6357L24.5625 23.5996C24.5926 23.5987 24.6223 23.5902 24.6484 23.5752C24.6746 23.5601 24.697 23.5384 24.7129 23.5127C24.7474 23.4676 24.7701 23.4146 24.7783 23.3584C24.7865 23.3022 24.78 23.2445 24.7598 23.1914C24.7396 23.1385 24.7065 23.0912 24.6631 23.0547C24.6196 23.0181 24.5665 22.9932 24.5107 22.9824H24.3613C24.327 22.9833 24.2932 22.974 24.2646 22.9551C24.236 22.936 24.2136 22.9081 24.2012 22.876C24.16 22.8024 24.1434 22.7175 24.1533 22.6338C24.1632 22.55 24.1987 22.4712 24.2559 22.4092C24.2777 22.3883 24.3042 22.3725 24.333 22.3633C24.3619 22.354 24.3928 22.3521 24.4229 22.3564C24.6612 22.3831 24.7842 22.2676 24.7842 22.0293C24.7843 21.8178 24.89 21.7128 25.1016 21.7295H25.1729C25.2351 21.7323 25.2938 21.7587 25.3379 21.8027C25.382 21.8468 25.4083 21.9055 25.4111 21.9678L25.418 22.7627C25.4189 22.8001 25.4305 22.8369 25.4512 22.8682C25.4717 22.8992 25.5004 22.9239 25.5342 22.9395C25.5895 22.9679 25.6508 22.9844 25.7129 22.9873C25.7749 22.9901 25.8369 22.9792 25.8945 22.9561C25.9303 22.9414 25.9619 22.9175 25.9854 22.8867C26.0087 22.856 26.0238 22.8196 26.0283 22.7812L26.0732 22.5146C26.0791 22.4718 26.0997 22.4323 26.1318 22.4033C26.1642 22.3743 26.2066 22.3576 26.25 22.3564L27.7129 22.3467C27.7429 22.3451 27.7723 22.3386 27.8008 22.3291C27.8468 22.309 27.8863 22.2759 27.9131 22.2334C27.9398 22.1909 27.953 22.141 27.9512 22.0908C27.9465 21.9991 27.9749 21.9085 28.0312 21.8359C28.0689 21.7834 28.1215 21.7432 28.1816 21.7197C28.2259 21.7063 28.2726 21.7024 28.3184 21.709ZM23.1826 33.1826C23.2577 33.1826 23.3297 33.2126 23.3828 33.2656C23.4359 33.3187 23.4658 33.3907 23.4658 33.4658V37.3047C23.4661 37.3413 23.4586 37.3779 23.4434 37.4111C23.4281 37.4444 23.4059 37.4744 23.3779 37.498C23.3542 37.526 23.3244 37.5482 23.291 37.5635C23.2576 37.5787 23.2213 37.5863 23.1846 37.5859L19.3379 37.5791C19.2628 37.5791 19.1908 37.5492 19.1377 37.4961C19.0846 37.443 19.0547 37.371 19.0547 37.2959L19.0645 33.458C19.0644 33.3847 19.0927 33.3136 19.1436 33.2607C19.1945 33.2079 19.2645 33.1764 19.3379 33.1738L23.1826 33.1826ZM36.7051 23.874V26.6016L35.0205 28.2852H36.7051V31.6191H35.0205L36.7051 33.3018V36.0293L35.7119 37.0234L34.8955 36.207C34.9188 36.1812 34.9323 36.1472 34.9316 36.1025V35.2832C34.9316 35.1249 34.8429 35.0449 34.6846 35.0449H33.9424C33.8856 35.0454 33.8312 35.0642 33.7861 35.0977L33.043 34.3545V34.0566C33.043 33.9815 33.0728 33.9086 33.126 33.8555C33.1791 33.8025 33.2512 33.7725 33.3262 33.7725H34.7363C34.7875 33.7724 34.8366 33.7527 34.873 33.7168C34.9096 33.6806 34.9312 33.6305 34.9316 33.5791V30.791C34.9304 30.7477 34.9136 30.7061 34.8848 30.6738C34.8558 30.6415 34.8155 30.6202 34.7725 30.6143C34.6669 30.5996 34.5594 30.6051 34.4561 30.6309C34.4244 30.6409 34.396 30.6597 34.374 30.6846C34.3521 30.7094 34.3371 30.7399 34.3311 30.7725L34.2881 31.0566C34.2811 31.0945 34.2628 31.1292 34.2363 31.1572C34.2097 31.1853 34.1753 31.2058 34.1377 31.2148C34.0362 31.2449 33.9278 31.2415 33.8281 31.2061C33.7968 31.1958 33.7688 31.1772 33.7471 31.1523C33.7254 31.1274 33.71 31.097 33.7041 31.0645L33.6348 30.748C33.6305 30.7218 33.6186 30.6973 33.6016 30.6768C33.5846 30.6563 33.5631 30.64 33.5381 30.6309C33.3614 30.5709 33.1124 30.5979 33.0508 30.8096C33.0075 30.9678 33.043 31.0831 33.1396 31.1631C33.1858 31.2001 33.2413 31.2237 33.2998 31.2324C33.5629 31.2347 33.6865 31.3646 33.6699 31.6211C33.6688 31.6933 33.6978 31.7523 33.7578 31.7979C33.8481 31.8604 33.9567 31.891 34.0664 31.8857C34.0967 31.8827 34.1273 31.8869 34.1562 31.8965C34.1852 31.9061 34.2119 31.9218 34.2344 31.9424C34.2568 31.9631 34.2751 31.9885 34.2871 32.0166C34.2991 32.0448 34.3053 32.0758 34.3047 32.1064V32.9014C34.3046 33.0512 34.2162 33.1296 34.0664 33.1396L33.2012 33.1562C33.1737 33.1551 33.1464 33.1627 33.124 33.1787C33.1018 33.1946 33.086 33.218 33.0781 33.2441C33.0577 33.3036 33.048 33.3669 33.0508 33.4297C33.0674 33.7028 32.8232 33.8358 32.585 33.7461C32.5276 33.7247 32.4772 33.6861 32.4424 33.6357C32.4077 33.5855 32.3896 33.5258 32.3896 33.4648L32.3994 32.7598C32.4005 32.6732 32.4415 32.6078 32.5225 32.5645C32.5963 32.5267 32.6779 32.5058 32.7607 32.5029C32.8163 32.4992 32.8708 32.4812 32.917 32.4502C32.9632 32.4192 33 32.3761 33.0244 32.3262C33.0477 32.2748 33.0564 32.218 33.0488 32.1621C33.0412 32.1062 33.0177 32.053 32.9814 32.0098C32.8481 31.8515 32.6979 31.8594 32.5312 31.8594H30.7842C30.5994 31.8593 30.5015 31.7711 30.4932 31.5762V31.4766C30.4953 31.458 30.4998 31.4397 30.5059 31.4219C30.5181 31.3861 30.5376 31.3528 30.5635 31.3252C30.5893 31.2976 30.6214 31.2762 30.6562 31.2617C30.6911 31.2473 30.7289 31.2401 30.7666 31.2412C31.0312 31.2411 31.146 31.1078 31.1377 30.8447C31.1367 30.8094 31.1452 30.7742 31.1621 30.7432C31.1791 30.7122 31.2041 30.6862 31.2344 30.668C31.2917 30.6308 31.3585 30.6094 31.4268 30.6064C31.4949 30.6036 31.5628 30.6193 31.623 30.6514C31.6532 30.6669 31.6793 30.6894 31.6992 30.7168C31.7192 30.7443 31.7329 30.776 31.7383 30.8096L31.7998 31.0742C31.8049 31.1092 31.8195 31.1424 31.8428 31.1689C31.8661 31.1956 31.8975 31.215 31.9316 31.2246C32.1963 31.3026 32.4346 31.1445 32.4082 30.8633C32.3821 30.6072 32.3908 30.3484 32.4346 30.0947C32.4512 30.0248 32.4961 29.9796 32.5742 29.9795L32.751 29.9717C32.921 29.9539 33.0153 29.8649 33.0342 29.7061V29.5645C33.0198 29.4962 32.9823 29.4351 32.9277 29.3916C32.873 29.3481 32.8043 29.3247 32.7344 29.3262H30.8115C30.6493 29.3251 30.5454 29.2488 30.501 29.0977C30.4914 29.0597 30.4891 29.0204 30.4932 28.9814C30.5109 28.8148 30.5989 28.7267 30.7578 28.7178C30.8533 28.7044 30.946 28.6749 31.0312 28.6299C31.0613 28.6119 31.0859 28.585 31.1016 28.5537C31.117 28.5226 31.1228 28.4877 31.1191 28.4531C31.1191 28.1015 31.4107 27.9334 31.6924 28.1533C31.7173 28.1725 31.7371 28.198 31.748 28.2275C31.7588 28.2569 31.7613 28.2888 31.7549 28.3193C31.7015 28.6827 32.1079 28.8059 32.3379 28.5859C32.3595 28.564 32.3761 28.5377 32.3867 28.5088C32.3973 28.4798 32.4017 28.4488 32.3994 28.418V28.3291C32.3727 28.0023 32.3281 27.3764 32.7695 27.4131C32.7995 27.4174 32.8305 27.4145 32.8594 27.4053C32.8881 27.396 32.9147 27.3802 32.9365 27.3594C33.2277 27.0944 32.9111 26.6363 32.5312 26.8477C32.4992 26.8641 32.4716 26.8881 32.4502 26.917C32.4288 26.9459 32.4145 26.9793 32.4082 27.0146L32.373 27.2266C32.367 27.2611 32.3524 27.2935 32.3311 27.3213C32.3097 27.349 32.2818 27.3711 32.25 27.3857C32.1846 27.4184 32.1105 27.4314 32.0381 27.4219C31.9656 27.4124 31.8975 27.3814 31.8428 27.333C31.8203 27.3163 31.8019 27.2949 31.7881 27.2705C31.7743 27.2462 31.7654 27.2192 31.7627 27.1914L31.7461 26.998C31.7448 26.9611 31.732 26.9253 31.71 26.8955C31.708 26.8929 31.7052 26.8911 31.7031 26.8887L32.4766 26.1162H34.6738C34.743 26.1143 34.811 26.0856 34.8594 26.0361C34.8843 26.0126 34.9035 25.9837 34.917 25.9521C34.9305 25.9206 34.9377 25.8868 34.9375 25.8525V23.6553L35.7119 22.8809L36.7051 23.874ZM33.9297 35.6572C33.8753 35.6684 33.8247 35.6944 33.7842 35.7324C33.7167 35.8003 33.6787 35.8926 33.6777 35.9883C33.6801 36.0292 33.6738 36.072 33.6592 36.1104C33.6445 36.1487 33.6219 36.1839 33.5928 36.2129C33.5637 36.2418 33.5286 36.2639 33.4902 36.2783C33.4517 36.2928 33.4102 36.2986 33.3691 36.2959C33.2916 36.2926 33.2154 36.3181 33.1553 36.3672C33.0951 36.4163 33.0552 36.4858 33.043 36.5625C33.0274 36.6408 33.0421 36.7227 33.085 36.79C33.1278 36.8573 33.1951 36.9057 33.2725 36.9248C33.3359 36.9385 33.4022 36.9351 33.4639 36.915C33.5257 36.8948 33.5818 36.8582 33.625 36.8096C33.6519 36.7804 33.6703 36.7446 33.6797 36.7061C33.689 36.6672 33.6885 36.6263 33.6777 36.5879C33.6669 36.5512 33.6681 36.5117 33.6807 36.4756C33.6932 36.4395 33.7169 36.4078 33.748 36.3857C33.8097 36.3332 33.8887 36.3054 33.9697 36.3066C34.224 36.2888 34.3326 36.1558 34.2959 35.9092C34.2858 35.8552 34.2621 35.8047 34.2266 35.7627C34.1909 35.7206 34.1446 35.6887 34.0928 35.6699C34.0406 35.6509 33.9841 35.6461 33.9297 35.6572ZM20.166 34.0576C20.1073 34.0588 20.0511 34.0823 20.0088 34.123C19.9666 34.1638 19.9409 34.2188 19.9375 34.2773V36.4746C19.9346 36.5207 19.9467 36.5666 19.9717 36.6055C19.9969 36.6445 20.0346 36.6741 20.0781 36.6904C20.1069 36.7015 20.1361 36.7063 20.166 36.7041H22.3545C22.4134 36.703 22.4703 36.6813 22.5146 36.6426C22.5365 36.6224 22.5544 36.5975 22.5664 36.5703C22.5783 36.5433 22.5838 36.5139 22.584 36.4844V34.2861C22.5857 34.2556 22.5813 34.2248 22.5703 34.1963C22.5593 34.1677 22.5422 34.1417 22.5205 34.1201C22.4988 34.0986 22.4729 34.082 22.4443 34.0713C22.4157 34.0605 22.385 34.0557 22.3545 34.0576H20.166ZM21.7041 34.4961C21.9508 34.4961 22.1445 34.6908 22.1445 34.9375V35.8213C22.144 35.9379 22.0972 36.0495 22.0146 36.1318C21.932 36.2142 21.8198 36.2606 21.7031 36.2607H20.8213C20.7634 36.261 20.7059 36.2495 20.6523 36.2275C20.5988 36.2055 20.5498 36.1736 20.5088 36.1328C20.4678 36.0919 20.4353 36.0427 20.4131 35.9893C20.391 35.936 20.379 35.879 20.3789 35.8213V34.9375C20.3789 34.6908 20.5746 34.4961 20.8213 34.4961H21.7041ZM25.0908 34.3916C25.0043 34.3917 24.9215 34.4261 24.8604 34.4873C24.7992 34.5485 24.7647 34.6312 24.7646 34.7178C24.7646 34.8044 24.7991 34.888 24.8604 34.9492C24.9215 35.0102 25.0044 35.0448 25.0908 35.0449C25.1774 35.0449 25.261 35.0104 25.3223 34.9492C25.3835 34.888 25.418 34.8044 25.418 34.7178C25.4179 34.6313 25.3833 34.5485 25.3223 34.4873C25.261 34.426 25.1775 34.3916 25.0908 34.3916ZM28.2734 33.7588C28.3185 33.7543 28.3642 33.7594 28.4072 33.7734C28.4506 33.7877 28.4915 33.8112 28.5254 33.8418C28.5591 33.8723 28.586 33.9097 28.6045 33.9512C28.623 33.9928 28.6328 34.0384 28.6328 34.084C28.6328 34.1296 28.623 34.1751 28.6045 34.2168C28.586 34.2584 28.5591 34.2956 28.5254 34.3262C28.4915 34.3568 28.4506 34.3803 28.4072 34.3945C28.3641 34.4086 28.3186 34.4137 28.2734 34.4092C28.193 34.401 28.1177 34.3636 28.0635 34.3037C28.0092 34.2437 27.9795 34.1649 27.9795 34.084C27.9796 34.0032 28.0093 33.9252 28.0635 33.8652C28.1177 33.8052 28.1929 33.767 28.2734 33.7588ZM30.8066 33.123C30.8495 33.1229 30.892 33.1312 30.9316 33.1475C30.9713 33.1638 31.0078 33.1875 31.0381 33.2178C31.0684 33.2481 31.0921 33.2846 31.1084 33.3242C31.1247 33.3639 31.133 33.4063 31.1328 33.4492C31.133 33.492 31.1246 33.5346 31.1084 33.5742C31.0922 33.6137 31.0682 33.6494 31.0381 33.6797C31.0079 33.71 30.9722 33.7345 30.9326 33.751C30.8931 33.7674 30.8504 33.7764 30.8076 33.7764C30.7212 33.7763 30.6364 33.7417 30.5752 33.6807C30.5139 33.6194 30.4795 33.5359 30.4795 33.4492C30.4795 33.3626 30.5139 33.279 30.5752 33.2178C30.6364 33.1566 30.7201 33.123 30.8066 33.123ZM25.6963 32.502C25.768 32.4827 25.8441 32.4888 25.9121 32.5186C25.98 32.5484 26.0359 32.6003 26.0703 32.666C26.1047 32.7319 26.116 32.808 26.1016 32.8809C26.0871 32.9538 26.0481 33.0196 25.9912 33.0674C25.9547 33.0975 25.9119 33.1195 25.8662 33.1318C25.8207 33.1441 25.7731 33.1471 25.7266 33.1396C25.6535 33.1268 25.5852 33.0889 25.5361 33.0332C25.4871 32.9774 25.4584 32.9063 25.4551 32.832C25.4518 32.7579 25.4738 32.6849 25.5176 32.625C25.5615 32.565 25.6245 32.5213 25.6963 32.502ZM31.1631 32.3008C31.2288 32.3 31.2925 32.3255 31.3398 32.3711C31.3861 32.4182 31.4115 32.4819 31.4111 32.5479V32.7227L30.9873 32.2988L31.1631 32.3008ZM22.498 31.2324C22.4303 31.231 22.3642 31.2567 22.3145 31.3027C22.2649 31.3487 22.2353 31.412 22.2314 31.4795V31.5928C22.2303 31.6281 22.236 31.6634 22.249 31.6963C22.262 31.7292 22.2816 31.7592 22.3066 31.7842C22.3316 31.8092 22.3617 31.8288 22.3945 31.8418C22.4274 31.8547 22.4628 31.8605 22.498 31.8594H23.2383C23.3061 31.8593 23.3709 31.8321 23.4189 31.7842C23.4671 31.736 23.4941 31.6706 23.4941 31.6025V31.4893C23.494 31.3479 23.3797 31.2327 23.2383 31.2324H22.498ZM40.9971 28.2852V31.6191H38.4688V28.2852H40.9971ZM29.5947 30.6064C29.6463 30.6079 29.6968 30.6235 29.7402 30.6514C29.7835 30.6792 29.8181 30.7184 29.8408 30.7646C29.8521 30.799 29.8577 30.8349 29.8574 30.8711V30.9414C29.8574 31.0186 29.843 31.0795 29.8145 31.126L29.2949 30.6064H29.5947ZM23.1445 27.4131C22.9669 27.4131 22.8812 27.5005 22.8877 27.6758C22.8909 27.7324 22.8827 27.7895 22.8633 27.8428C22.8438 27.8961 22.8134 27.9451 22.7744 27.9863C22.7505 28.0116 22.7215 28.0315 22.6895 28.0449C22.6573 28.0584 22.6227 28.0651 22.5879 28.0645H21.8809C21.8067 28.0666 21.7362 28.0971 21.6836 28.1494C21.631 28.2021 21.5998 28.2733 21.5977 28.3477V29.6895C21.5962 29.7532 21.6195 29.8149 21.6621 29.8623C21.7049 29.9097 21.7645 29.9392 21.8281 29.9443C22.1446 29.9611 22.2862 30.1214 22.2695 30.4297C22.2696 30.5362 22.3046 30.5879 22.4111 30.5879L23.2393 30.6064C23.2722 30.6066 23.3049 30.5984 23.334 30.583C23.363 30.5676 23.3879 30.5449 23.4062 30.5176C23.5305 30.3688 23.54 30.2162 23.4346 30.0596C23.4082 30.0164 23.366 29.9853 23.3174 29.9717L23.3213 29.9795L23.0215 29.9092C22.9897 29.9037 22.9602 29.8891 22.9365 29.8672C22.9129 29.8453 22.8956 29.8174 22.8877 29.7861C22.8361 29.6095 22.8794 29.4758 23.0127 29.3691C23.0482 29.3425 23.0913 29.3277 23.1357 29.3262C23.4007 29.3428 23.5244 29.2129 23.5244 28.9297C23.5255 28.7786 23.6018 28.7023 23.7529 28.7012L24.4414 28.6914C24.6424 28.6902 24.7605 28.5872 24.7949 28.3828C24.8051 28.3121 24.7892 28.2401 24.751 28.1797C24.7317 28.1476 24.7045 28.1209 24.6719 28.1025C24.6392 28.0841 24.602 28.074 24.5645 28.0742L23.7881 28.0479C23.7496 28.0474 23.7115 28.0372 23.6777 28.0186C23.6441 28 23.6156 27.9736 23.5947 27.9414C23.5407 27.8596 23.5075 27.7656 23.498 27.668C23.4814 27.4914 23.3813 27.4032 23.2148 27.4131H23.1445ZM34.6729 29.3271L33.9395 29.3193C33.8712 29.3202 33.8058 29.347 33.7568 29.3945C33.7078 29.4423 33.6793 29.5078 33.6768 29.5762V29.6807C33.6768 29.8222 33.7911 29.9471 33.9326 29.9473H34.665C34.7325 29.9469 34.7976 29.9213 34.8467 29.875C34.8958 29.8286 34.9255 29.7647 34.9297 29.6973V29.584C34.9292 29.5154 34.9022 29.4497 34.8545 29.4004C34.8067 29.351 34.7415 29.3219 34.6729 29.3193V29.3271ZM30.2129 29.3184C30.3711 29.3184 30.4939 29.441 30.4941 29.5908V29.6797C30.4939 29.715 30.4865 29.7497 30.4727 29.7822C30.4587 29.8148 30.4385 29.8445 30.4131 29.8691C30.3877 29.8938 30.3581 29.9139 30.3252 29.9268C30.2922 29.9397 30.2561 29.9452 30.2207 29.9443H29.5146C29.4788 29.9454 29.4428 29.9395 29.4092 29.9268C29.3756 29.914 29.3445 29.8947 29.3184 29.8701C29.2924 29.8456 29.2715 29.8158 29.2568 29.7832C29.2422 29.7506 29.2335 29.7154 29.2324 29.6797V29.5908C29.2327 29.5556 29.2401 29.5207 29.2539 29.4883C29.2678 29.4558 29.2881 29.426 29.3135 29.4014C29.3389 29.3767 29.3694 29.3576 29.4023 29.3447C29.4353 29.3319 29.4705 29.3253 29.5059 29.3262V29.3184H30.2129ZM20.6641 28.0498C20.5838 28.0581 20.5092 28.0954 20.4551 28.1553C20.4008 28.2153 20.3711 28.2941 20.3711 28.375C20.3712 28.4558 20.4009 28.5338 20.4551 28.5938C20.5092 28.6536 20.5838 28.691 20.6641 28.6992C20.7094 28.7038 20.7555 28.6987 20.7988 28.6846C20.8421 28.6704 20.8822 28.6476 20.916 28.6172C20.9499 28.5866 20.9776 28.5486 20.9961 28.5068C21.0145 28.4653 21.0244 28.4204 21.0244 28.375C21.0244 28.3294 21.0146 28.2839 20.9961 28.2422C20.9776 28.2004 20.9499 28.1625 20.916 28.1318C20.8822 28.1014 20.842 28.0786 20.7988 28.0645C20.7555 28.0503 20.7094 28.0452 20.6641 28.0498ZM23.3115 28.0742C23.37 28.0986 23.4199 28.1397 23.4551 28.1924C23.4903 28.2452 23.5098 28.3075 23.5098 28.3711C23.5093 28.4565 23.4746 28.5384 23.4141 28.5986C23.3536 28.6587 23.2718 28.6923 23.1865 28.6924C23.123 28.6921 23.0605 28.6732 23.0078 28.6377C22.9553 28.6022 22.9147 28.5518 22.8906 28.4932C22.8666 28.4345 22.8605 28.3698 22.873 28.3076C22.8856 28.2453 22.9159 28.1874 22.9609 28.1426C23.006 28.0978 23.0637 28.0679 23.126 28.0557C23.1883 28.0434 23.2529 28.0498 23.3115 28.0742ZM33.2881 28.0557C33.2259 28.0681 33.1689 28.0987 33.124 28.1436C33.079 28.1885 33.0485 28.2462 33.0361 28.3086C33.0238 28.3709 33.0294 28.4355 33.0537 28.4941C33.0781 28.5529 33.12 28.6033 33.1729 28.6387C33.2257 28.6739 33.2881 28.6924 33.3516 28.6924L33.416 28.6855C33.4773 28.6727 33.5343 28.6427 33.5791 28.5977C33.6389 28.5375 33.6724 28.4559 33.6729 28.3711C33.6729 28.3076 33.6544 28.2452 33.6191 28.1924C33.5839 28.1396 33.5332 28.0986 33.4746 28.0742C33.4158 28.0499 33.3505 28.0433 33.2881 28.0557ZM31.1377 27.7832C31.1389 27.8343 31.1252 27.8851 31.0986 27.9287C31.0721 27.9721 31.0339 28.007 30.9883 28.0293C30.9481 28.0519 30.9033 28.0667 30.8574 28.0713C30.8115 28.0759 30.7646 28.0709 30.7207 28.0566C30.6705 28.0429 30.6307 28.0206 30.5977 27.9941L31.1377 27.4551V27.7832ZM34.2949 27.0791C34.2948 26.8393 34.0648 26.7261 33.8516 26.8125C33.8066 26.8329 33.7662 26.8636 33.7344 26.9014C33.6865 26.9588 33.6609 27.0317 33.6631 27.1064C33.6652 27.1813 33.6948 27.253 33.7461 27.3076C33.7856 27.3489 33.8337 27.3811 33.8867 27.4023C33.9399 27.4236 33.9975 27.4334 34.0547 27.4307C34.1595 27.4307 34.2327 27.4758 34.2578 27.5889L34.3301 27.8545C34.3398 27.8956 34.3565 27.9351 34.3809 27.9697C34.4243 28.0177 34.4831 28.0493 34.5469 28.0605C34.6108 28.0717 34.6771 28.0617 34.7344 28.0312C34.9377 27.9346 34.9811 27.776 34.8945 27.5811C34.8733 27.5332 34.8381 27.492 34.7939 27.4639C34.7499 27.4359 34.6986 27.422 34.6465 27.4229C34.4109 27.4129 34.2938 27.298 34.2949 27.0791ZM31.418 26.7998C31.4879 26.7922 31.5587 26.8026 31.623 26.8311C31.6549 26.8421 31.6817 26.8628 31.7031 26.8887L31.1377 27.4551V27.0332C31.1377 26.9633 31.173 26.9183 31.2246 26.875C31.2813 26.8334 31.348 26.8074 31.418 26.7998ZM29.5381 25.5078C29.6246 25.5078 29.7073 25.5423 29.7686 25.6035C29.8298 25.6647 29.8642 25.7474 29.8643 25.834C29.8643 25.9206 29.8298 26.0042 29.7686 26.0654C29.7074 26.1265 29.6245 26.1611 29.5381 26.1611C29.4514 26.1611 29.3679 26.1267 29.3066 26.0654C29.2454 26.0042 29.2109 25.9206 29.2109 25.834C29.211 25.7476 29.2456 25.6647 29.3066 25.6035C29.3679 25.5423 29.4514 25.5078 29.5381 25.5078ZM27.6445 25.5059C27.6016 25.5059 27.5592 25.5148 27.5195 25.5312C27.4799 25.5477 27.4434 25.5712 27.4131 25.6016C27.3828 25.6319 27.3592 25.6684 27.3428 25.708C27.3264 25.7476 27.3174 25.7901 27.3174 25.833C27.3174 25.8759 27.3264 25.9184 27.3428 25.958C27.3591 25.9974 27.383 26.0333 27.4131 26.0635C27.4434 26.0938 27.4799 26.1183 27.5195 26.1348C27.5591 26.1512 27.6017 26.1592 27.6445 26.1592C27.6875 26.1594 27.7298 26.1511 27.7695 26.1348C27.8092 26.1184 27.8456 26.0948 27.876 26.0645C27.9063 26.0341 27.93 25.9977 27.9463 25.958C27.9626 25.9183 27.9709 25.8759 27.9707 25.833C27.9709 25.7901 27.9626 25.7477 27.9463 25.708C27.93 25.6683 27.9063 25.6319 27.876 25.6016C27.8456 25.5712 27.8093 25.5466 27.7695 25.5303C27.7299 25.514 27.6874 25.5056 27.6445 25.5059ZM24.4912 24.8809C24.5673 24.8804 24.6408 24.9099 24.6953 24.9629C24.7498 25.0158 24.7814 25.0881 24.7832 25.1641V25.8613C24.7836 25.8995 24.7761 25.9373 24.7617 25.9727C24.7472 26.0082 24.7254 26.0412 24.6982 26.0684C24.6712 26.0954 24.6389 26.1164 24.6035 26.1309C24.5679 26.1454 24.5296 26.1528 24.4912 26.1523H24.4463C24.2898 26.1523 24.1565 26.0278 24.1562 25.8613V25.1729C24.1562 25.0958 24.1869 25.0214 24.2412 24.9668C24.2955 24.9122 24.3693 24.8813 24.4463 24.8809H24.4912ZM23.1826 21.7041C23.2575 21.7041 23.3297 21.7343 23.3828 21.7871C23.4357 21.8398 23.4654 21.9117 23.4658 21.9863V25.834C23.4658 25.9121 23.4413 25.984 23.3799 26.0273H23.3896C23.3353 26.0872 23.2674 26.1171 23.1865 26.1172H19.3398C19.2647 26.1172 19.1918 26.0873 19.1387 26.0342C19.0858 25.9811 19.0557 25.9089 19.0557 25.834V21.9873C19.0557 21.9123 19.0857 21.8402 19.1387 21.7871C19.1918 21.734 19.2647 21.7041 19.3398 21.7041H23.1826ZM34.6729 21.7041C34.7428 21.7046 34.8099 21.7327 34.8594 21.7822C34.9089 21.8317 34.9369 21.8988 34.9375 21.9688V23.6553L34.0527 24.54V22.8076C34.0541 22.7791 34.049 22.7504 34.0391 22.7236C34.0292 22.6972 34.0145 22.6729 33.9951 22.6523C33.9756 22.6318 33.9518 22.6149 33.9258 22.6035C33.8997 22.5922 33.8712 22.5862 33.8428 22.5859H31.6279C31.585 22.585 31.5421 22.597 31.5059 22.6201C31.4697 22.6433 31.441 22.6765 31.4238 22.7158C31.4112 22.7416 31.4056 22.7702 31.4072 22.7988V25.0127C31.4051 25.0414 31.4099 25.0707 31.4199 25.0977C31.43 25.1245 31.4456 25.1487 31.4658 25.1689C31.4858 25.1894 31.5098 25.2056 31.5361 25.2168C31.5624 25.2279 31.5906 25.2342 31.6191 25.2344H33.3584L32.4766 26.1162H30.791C30.7212 26.1158 30.654 26.0873 30.6045 26.0381C30.555 25.9889 30.5263 25.9223 30.5254 25.8525V21.9688C30.5259 21.8991 30.5544 21.8326 30.6035 21.7832C30.6527 21.7337 30.7192 21.705 30.7891 21.7041H34.6729ZM34.0527 25.0127C34.0542 25.0281 34.0535 25.0436 34.0508 25.0586L34.0361 25.1006C34.0196 25.1403 33.991 25.1745 33.9551 25.1982C33.9192 25.2219 33.877 25.2347 33.834 25.2344H33.3584L34.0527 24.54V25.0127ZM20.1582 22.5879C20.1285 22.5874 20.0987 22.5931 20.0713 22.6045C20.0438 22.6159 20.0187 22.6329 19.998 22.6543C19.9776 22.6756 19.9615 22.7008 19.9512 22.7285C19.9408 22.7562 19.936 22.7859 19.9375 22.8154V25.0127C19.9374 25.0566 19.9508 25.0995 19.9756 25.1357C20.0006 25.1721 20.0369 25.2002 20.0781 25.2158L20.166 25.2324H22.3643C22.4081 25.2322 22.4513 25.2193 22.4873 25.1943C22.5233 25.1694 22.5509 25.1337 22.5664 25.0928C22.5805 25.0656 22.5861 25.0345 22.584 25.0039V22.8076C22.584 22.7634 22.5712 22.7199 22.5459 22.6836C22.5206 22.6472 22.484 22.6198 22.4424 22.6045C22.4151 22.591 22.3848 22.5853 22.3545 22.5879H20.1582ZM26.9746 22.9746C26.7796 22.9646 26.6914 23.063 26.6914 23.248V23.9883C26.6944 24.0249 26.7031 24.061 26.7178 24.0947C26.7398 24.1456 26.7777 24.1881 26.8252 24.2168C26.8725 24.2453 26.9273 24.259 26.9824 24.2549C27.218 24.2371 27.3359 24.3479 27.3359 24.5879C27.3318 24.6446 27.3477 24.7012 27.3799 24.748C27.6183 25.0826 28.1291 24.7642 27.9092 24.376C27.8742 24.2962 27.8123 24.2627 27.7324 24.2627C27.6204 24.2627 27.51 24.2326 27.4141 24.1748C27.3542 24.137 27.3259 24.0866 27.3281 24.0244V23.2646C27.3281 23.0798 27.2297 22.9748 27.0449 22.9746H26.9746ZM21.7041 23.0254C21.9508 23.0254 22.1445 23.2194 22.1445 23.4678V24.3496C22.1447 24.4075 22.1334 24.465 22.1113 24.5186C22.0892 24.5722 22.0567 24.6211 22.0156 24.6621C21.9746 24.7031 21.9257 24.7357 21.8721 24.7578C21.8185 24.7799 21.761 24.7912 21.7031 24.791H20.8213C20.7042 24.791 20.5916 24.744 20.5088 24.6611C20.4261 24.5784 20.379 24.4665 20.3789 24.3496V23.4678C20.3789 23.2194 20.5746 23.0254 20.8213 23.0254H21.7041ZM33.1738 23.0254C33.4205 23.0254 33.6162 23.2194 33.6162 23.4678V24.3496C33.6164 24.4075 33.6051 24.465 33.583 24.5186C33.5609 24.5722 33.5283 24.6211 33.4873 24.6621C33.4463 24.7031 33.3974 24.7357 33.3438 24.7578C33.2901 24.7799 33.2319 24.7912 33.1738 24.791H32.291C32.1742 24.7906 32.062 24.7439 31.9795 24.6611C31.8971 24.5785 31.8507 24.4663 31.8506 24.3496V23.4678C31.8506 23.2194 32.0443 23.0254 32.291 23.0254H33.1738ZM25.6768 23.667C25.62 23.6771 25.5665 23.702 25.5225 23.7393C25.4756 23.7801 25.4411 23.8341 25.4229 23.8936C25.4047 23.9529 25.404 24.0162 25.4199 24.0762C25.4354 24.1335 25.4659 24.1856 25.5088 24.2266C25.5519 24.2676 25.606 24.2959 25.6641 24.3086C25.7221 24.3213 25.7827 24.3181 25.8389 24.2988C25.895 24.2795 25.9444 24.2448 25.9824 24.1992C26.0125 24.1631 26.0352 24.1214 26.0479 24.0762C26.0605 24.0309 26.0637 23.983 26.0566 23.9365C26.0473 23.8795 26.0221 23.8258 25.9854 23.7812C25.9486 23.7367 25.9009 23.7026 25.8467 23.6826C25.7925 23.6626 25.7336 23.657 25.6768 23.667ZM28.2627 22.9746C28.2222 22.9742 28.1821 22.9819 28.1445 22.9971C28.1068 23.0124 28.0718 23.0348 28.043 23.0635C28.0141 23.0922 27.9911 23.1264 27.9756 23.1641C27.9601 23.2017 27.9529 23.2425 27.9531 23.2832V23.3184C27.9534 23.4848 28.0946 23.6181 28.2627 23.6182H28.9248C28.9653 23.6183 29.0055 23.6101 29.043 23.5947C29.0802 23.5794 29.114 23.5568 29.1426 23.5283C29.1713 23.4996 29.1945 23.4652 29.21 23.4277C29.2253 23.3903 29.2326 23.3501 29.2324 23.3096V23.2744C29.2328 23.2339 29.2252 23.1938 29.21 23.1562C29.1946 23.1185 29.1723 23.0835 29.1436 23.0547C29.1149 23.0259 29.0805 23.0028 29.043 22.9873C29.0055 22.9719 28.9653 22.9647 28.9248 22.9648H28.9141L28.2627 22.9746Z" fill="#454ADE"/>
</svg>
