<svg width="54" height="54" viewBox="0 0 54 54" fill="none" xmlns="http://www.w3.org/2000/svg">
<rect width="54" height="54" rx="4" fill="#F9F9FE"/>
<path d="M41.9338 13.2878C42.002 13.1174 42.0187 12.9308 41.9819 12.751C41.945 12.5713 41.8562 12.4063 41.7264 12.2765C41.5966 12.1468 41.4317 12.058 41.2519 12.0211C41.0721 11.9842 40.8855 12.0009 40.7151 12.0691L13.4405 22.9793H13.4386L12.5911 23.3168C12.4306 23.3808 12.2909 23.488 12.1875 23.6264C12.084 23.7649 12.0209 23.9292 12.005 24.1013C11.989 24.2734 12.021 24.4465 12.0973 24.6015C12.1736 24.7566 12.2913 24.8875 12.4374 24.9799L13.2061 25.4674L13.208 25.4711L22.5733 31.4297L25.5544 36.1133C27.0019 38.2507 27.0019 36.3757 27.0019 35.4383C27.0016 34.2469 27.2537 33.069 27.7415 31.9821C28.2293 30.8952 28.9418 29.9239 29.832 29.1322C30.7222 28.3404 31.77 27.7462 32.9064 27.3886C34.0428 27.031 35.2421 26.9181 36.4253 27.0573L41.9338 13.2878ZM38.4971 16.8314L24.4463 30.8822L24.0432 30.2485C23.9694 30.1322 23.8708 30.0336 23.7545 29.9597L23.1207 29.5566L37.1715 15.5058L39.3802 14.6227L38.4971 16.8314Z" fill="#454ADE"/>
<circle cx="35.4378" cy="35.4373" r="6.56227" fill="#454ADE"/>
<path d="M38.5181 37.7132V38.5167H33.1611V37.7132C33.1611 37.5658 33.2817 37.4453 33.429 37.4453H38.2502C38.3976 37.4453 38.5181 37.5658 38.5181 37.7132Z" fill="#E9E9E9" stroke="#E9E9E9" stroke-width="0.0107139" stroke-miterlimit="10" stroke-linecap="round" stroke-linejoin="round"/>
<path d="M34.5005 35.5723H33.9648V37.4472H34.5005V35.5723Z" fill="#E9E9E9"/>
<path d="M35.5718 35.5723H35.0361V37.4472H35.5718V35.5723Z" fill="#E9E9E9"/>
<path d="M36.6431 35.5723H36.1074V37.4472H36.6431V35.5723Z" fill="#E9E9E9"/>
<path d="M37.7144 35.5723H37.1787V37.4472H37.7144V35.5723Z" fill="#E9E9E9"/>
<path d="M38.7859 38.7182H32.8933C32.7835 38.7182 32.6924 38.6271 32.6924 38.5173C32.6924 38.4075 32.7835 38.3164 32.8933 38.3164H38.7859C38.8957 38.3164 38.9868 38.4075 38.9868 38.5173C38.9868 38.6271 38.8957 38.7182 38.7859 38.7182Z" fill="#E9E9E9"/>
<path d="M38.3493 34.1639L35.9387 33.1997C35.8851 33.1782 35.7941 33.1782 35.7405 33.1997L33.3299 34.1639C33.2361 34.2014 33.1611 34.3112 33.1611 34.413V35.3023C33.1611 35.4496 33.2817 35.5701 33.429 35.5701H38.2502C38.3976 35.5701 38.5181 35.4496 38.5181 35.3023V34.413C38.5181 34.3112 38.4431 34.2014 38.3493 34.1639ZM35.8396 34.9005C35.6173 34.9005 35.4378 34.721 35.4378 34.4987C35.4378 34.2764 35.6173 34.097 35.8396 34.097C36.0619 34.097 36.2414 34.2764 36.2414 34.4987C36.2414 34.721 36.0619 34.9005 35.8396 34.9005Z" fill="#E9E9E9"/>
</svg>
