<svg width="54" height="54" viewBox="0 0 54 54" fill="none" xmlns="http://www.w3.org/2000/svg">
<rect width="54" height="54" rx="4" fill="#F9F9FE"/>
<path d="M41.9338 13.2878C42.002 13.1174 42.0187 12.9308 41.9819 12.751C41.945 12.5713 41.8562 12.4063 41.7264 12.2765C41.5966 12.1468 41.4317 12.058 41.2519 12.0211C41.0721 11.9842 40.8855 12.0009 40.7151 12.0691L13.4405 22.9793H13.4386L12.5911 23.3168C12.4306 23.3808 12.2909 23.488 12.1875 23.6264C12.084 23.7649 12.0209 23.9292 12.005 24.1013C11.989 24.2734 12.021 24.4465 12.0973 24.6015C12.1736 24.7566 12.2913 24.8875 12.4374 24.9799L13.2061 25.4674L13.208 25.4711L22.5733 31.4297L25.5544 36.1133C27.0019 38.2507 27.0019 36.3757 27.0019 35.4383C27.0016 34.2469 27.2537 33.069 27.7415 31.9821C28.2293 30.8952 28.9418 29.9239 29.832 29.1322C30.7222 28.3404 31.77 27.7462 32.9064 27.3886C34.0428 27.031 35.2421 26.9181 36.4253 27.0573L41.9338 13.2878ZM38.4971 16.8314L24.4463 30.8822L24.0432 30.2485C23.9694 30.1322 23.8708 30.0336 23.7545 29.9597L23.1207 29.5566L37.1715 15.5058L39.3802 14.6227L38.4971 16.8314Z" fill="#454ADE"/>
<circle cx="35.4378" cy="35.4373" r="6.56227" fill="#454ADE"/>
<path d="M31.688 33.4893V34.8709H32.4774V33.9334L35.4379 32.3052L38.3983 33.9334V34.8709H39.1877V33.4893L35.4379 31.3184L31.688 33.4893Z" fill="white"/>
<path d="M32.4774 35.463H31.688V35.907H32.4774V35.463Z" fill="white"/>
<path d="M31.688 36.5484H32.4774V36.9925L35.4379 38.7194L37.0168 37.782L37.6582 38.3247L33.859 34.8709V37.7326L33.0202 37.2555V33.9334L33.9083 33.3907L37.0168 36.3017V33.5387L37.7569 33.9827L37.6582 38.3247L35.4379 39.5582L31.688 37.4859V36.5484Z" fill="white"/>
<path d="M37.9542 38.078V37.3379L38.3983 36.9432V36.5484H39.1384V37.4366L37.9542 38.078Z" fill="white"/>
<path d="M39.1384 35.4136H38.3983V35.907H39.1384V35.4136Z" fill="white"/>
</svg>
