<svg width="64" height="64" viewBox="0 0 64 64" fill="none" xmlns="http://www.w3.org/2000/svg">
<path d="M20.2383 8.03223H30.6113C31.3 8.03227 32.1781 8.15432 32.9922 8.39746C33.8476 8.65292 34.3931 8.97028 34.626 9.20312L34.7158 9.29297L34.8164 9.37012L38.2188 12.001V12.002C39.0447 12.6427 39.5205 13.6085 39.5205 14.6279V41.6484C39.5205 42.3138 39.3205 42.9675 38.9512 43.5215L31.6953 54.3125L31.6904 54.3184L31.6865 54.3252C31.3941 54.767 30.7818 55.2651 29.96 55.5557C29.155 55.8402 28.3285 55.8622 27.6387 55.6045L27.6084 55.5938L27.5771 55.583L27.4199 55.5254C25.8122 54.8887 24.7901 52.9943 25.1143 51.4814L25.126 51.4297L25.1338 51.377L26.5166 42.6797L26.5215 42.6553L26.5244 42.6309C26.7015 41.3026 26.3443 40.0318 25.5391 39.0371L25.5078 38.999L25.4756 38.9619L25.3184 38.7959C24.5115 37.9828 23.3818 37.4736 22.1533 37.4736H11.2227C9.6613 37.4736 8.5102 36.8539 7.87891 35.9766C7.3005 35.1526 7.11173 33.9863 7.59863 32.6035L7.60547 32.584L7.6123 32.5635L14.1553 12.6436L14.1777 12.5752L14.1953 12.5049C14.7818 10.159 17.5223 8.03241 20.2383 8.03223Z" fill="#C50D0D" stroke="#C50D0D" stroke-width="3.98936"/>
<path d="M49.9727 11.0381H52.7119C54.5886 11.0381 55.401 11.4146 55.7803 11.7764C56.1362 12.1159 56.5156 12.8323 56.5156 14.5752V41.3037C56.5156 43.0466 56.1362 43.7631 55.7803 44.1025C55.4009 44.4642 54.5884 44.8408 52.7119 44.8408H49.9727C48.0961 44.8408 47.2814 44.4636 46.9014 44.1025C46.5467 43.7653 46.1699 43.0557 46.1699 41.3301V14.5752C46.1699 12.8324 46.5484 12.1159 46.9043 11.7764C47.2836 11.4146 48.0959 11.0381 49.9727 11.0381Z" fill="#C50D0D" stroke="#C50D0D" stroke-width="3.98936"/>
</svg>
