<svg width="19" height="19" viewBox="0 0 19 19" fill="none" xmlns="http://www.w3.org/2000/svg">
<path d="M11.7727 1.58008H7.18996C6.65268 1.58008 5.89415 1.89613 5.51489 2.27539L2.27539 5.5149C1.89613 5.89416 1.58008 6.65268 1.58008 7.18996V11.7727C1.58008 12.3099 1.89613 13.0685 2.27539 13.4477L5.51489 16.6872C5.89415 17.0665 6.65268 17.3825 7.18996 17.3825H11.7727C12.3099 17.3825 13.0685 17.0665 13.4477 16.6872L16.6872 13.4477C17.0665 13.0685 17.3825 12.3099 17.3825 11.7727V7.18996C17.3825 6.65268 17.0665 5.89416 16.6872 5.5149L13.4477 2.27539C13.0685 1.89613 12.3099 1.58008 11.7727 1.58008Z" stroke="#85120B" stroke-width="1.18519" stroke-linecap="round" stroke-linejoin="round"/>
<path d="M6.7168 12.2477L12.2477 6.7168" stroke="#85120B" stroke-width="1.18519" stroke-linecap="round" stroke-linejoin="round"/>
<path d="M12.2477 12.2477L6.7168 6.7168" stroke="#85120B" stroke-width="1.18519" stroke-linecap="round" stroke-linejoin="round"/>
</svg>
